<?xml version="1.0" encoding="utf-8" ?>
<svg xmlns="http://www.w3.org/2000/svg" xmlns:xlink="http://www.w3.org/1999/xlink" width="1024" height="1024">
	<path fill="#02073E" d="M615.89 245.919C626.508 252.665 629.967 268.214 632.54 279.75L635.959 296.595C632.145 290.546 629.966 282.662 627.421 275.98L615.89 245.919Z"/>
	<path fill="#0EDAD0" d="M248.758 799.35L335.45 524.171C342.072 505.99 399.777 484.229 418.324 475.725C421.457 477.588 423.587 480.639 426.563 482.591L349.956 526.586C348.253 527.566 344.298 529.223 343.205 530.782C342.587 531.663 342.192 533.724 341.892 534.843L302.898 658.369L275.25 740.56L256.351 785.02C254.277 789.501 252.314 795.965 249.231 799.691L248.758 799.35Z"/>
	<path fill="#02073E" d="M330.743 895.684C335.478 892.777 341.662 893.512 346.989 893.599C348.987 894.202 351.269 893.995 353.343 893.993L390.804 893.898C391.824 895.846 392.78 898.226 394.302 899.817L453.193 899.016L695.75 899.136L696.402 900.46L696.479 907.798C698.273 908.47 700.79 909.146 701.931 910.819C703.686 913.392 703.738 917.467 703.146 920.439C702.497 923.697 700.667 926.597 697.867 928.425C695.746 929.81 693.43 930.41 690.924 930.471L622.126 930.428L479.695 930.433L424.25 930.541C414.906 930.609 404.09 932.063 394.956 930.197L394.25 930.043L327.709 911.693C327.221 907.327 326.029 900.906 328.892 897.214L330.743 895.684Z"/>
	<path fill="#0C7B9D" d="M330.743 895.684C340.774 899.139 351.915 900.864 362.275 903.261C371.505 905.396 381.333 908.535 390.713 909.566C401.167 910.716 412.209 910.065 422.73 910.039L473.991 910.035L648.966 910.163L679.877 910.16C685.276 910.126 693.467 908.735 698.479 910.75L698 911.403C691.475 912.019 684.741 911.531 678.181 911.498L642.237 911.465L522.15 911.271L429.022 911.194L406.5 911.003C401.577 911.098 396.571 911.964 391.653 911.508C386.937 911.07 382.13 909.501 377.482 908.552L342.338 901.006C337.819 899.866 333.487 898.023 328.892 897.214L330.743 895.684Z"/>
	<defs>
		<linearGradient id="gradient_0" gradientUnits="userSpaceOnUse" x1="251.6348" y1="569.78906" x2="380.32721" y2="868.09229">
			<stop offset="0" stop-color="#00795E"/>
			<stop offset="1" stop-color="#169375"/>
		</linearGradient>
	</defs>
	<path fill="url(#gradient_0)" d="M349.956 526.586C352.239 532.069 354.027 539.576 354.751 545.495L359.673 567.893L370.043 625.78L388.456 745.829C391.588 767.694 393.152 790.074 397.921 811.662C398.671 815.059 399.953 818.203 401.678 821.22L396.456 820.567C382.06 820.507 369.06 828.402 358.858 837.978L358.849 838.019C352.182 843.61 345.212 852.488 343.997 861.447L343.971 862.158C343.075 863.845 342.814 865.117 342.602 867.007C342.468 868.205 342.597 867.322 342.244 868.601C341.385 871.716 341.778 877.927 342.324 881.126L342.443 882.02C342.612 883.053 343.014 883.684 343.362 884.635L343.513 885.251C344.321 887.982 347.011 890.64 348.75 892.887C350.433 893.397 351.489 893.525 353.236 893.395L353.343 893.993C351.269 893.995 348.987 894.202 346.989 893.599C344.946 891.428 340.754 890.204 338.008 888.929L284.4 859.093C274.761 853.57 264.26 848.561 255.697 841.457C252.122 838.492 249.232 835.021 247.439 830.705C243.232 820.579 244.652 809.255 248.758 799.35L249.231 799.691C252.314 795.965 254.277 789.501 256.351 785.02L275.25 740.56L302.898 658.369L341.892 534.843C342.192 533.724 342.587 531.663 343.205 530.782C344.298 529.223 348.253 527.566 349.956 526.586ZM354.751 545.495C354.604 547.515 354.49 549.009 354.977 551C356.266 556.276 356.6 562.328 357.011 567.75L358.09 596.96C358.2 652.079 353.204 706.481 335.788 759.082L335.372 759.345C321.871 750.398 304.812 745.247 288.562 746.141C304.545 751.867 320.386 758.519 333.155 769.936L330.197 774.762C322.844 771.891 315.113 768.98 307.297 767.691C300.851 766.628 294.005 766.817 287.502 767.2C296.404 769.815 305.452 772.49 313.952 776.25C320.224 779.024 325.52 782.663 331.484 785.903L354.612 797.748L375.266 808.16L382.937 812.535L389.664 815.165C391.96 815.733 394.233 816.317 395.507 818.5L396.456 820.567L401.678 821.22C399.953 818.203 398.671 815.059 397.921 811.662C393.152 790.074 391.588 767.694 388.456 745.829L370.043 625.78L359.673 567.893L354.751 545.495Z"/>
	<path fill="#0ABC94" d="M382.937 812.535L389.664 815.165C386.089 817.188 381.686 817.865 377.834 819.309C368.22 822.914 358.85 829.564 351.439 836.626C348.383 838.63 345.851 841.383 342.909 843.587C349.306 833.914 358.011 824.575 368.165 818.815C372.891 816.135 377.836 814.332 382.937 812.535Z"/>
	<path fill="#06725B" d="M389.664 815.165C391.96 815.733 394.233 816.317 395.507 818.5L396.456 820.567C382.06 820.507 369.06 828.402 358.858 837.978L358.849 838.019C352.182 843.61 345.212 852.488 343.997 861.447L343.971 862.158C343.075 863.845 342.814 865.117 342.602 867.007C342.468 868.205 342.597 867.322 342.244 868.601C341.385 871.716 341.778 877.927 342.324 881.126L342.443 882.02C342.612 883.053 343.014 883.684 343.362 884.635L343.513 885.251C344.321 887.982 347.011 890.64 348.75 892.887C350.433 893.397 351.489 893.525 353.236 893.395L353.343 893.993C351.269 893.995 348.987 894.202 346.989 893.599C344.946 891.428 340.754 890.204 338.008 888.929L337.164 881.239C335.994 868.893 339.863 858.014 345.362 847.182C346.558 844.826 347.603 841.886 349.329 839.876C350.097 838.981 350.627 838.116 351.194 837.08L351.439 836.626C358.85 829.564 368.22 822.914 377.834 819.309C381.686 817.865 386.089 817.188 389.664 815.165Z"/>
	<path fill="#07604A" d="M354.751 545.495L359.673 567.893L370.043 625.78L388.456 745.829C391.588 767.694 393.152 790.074 397.921 811.662C398.671 815.059 399.953 818.203 401.678 821.22L396.456 820.567L395.507 818.5C394.233 816.317 391.96 815.733 389.664 815.165L382.937 812.535L375.266 808.16L354.612 797.748L331.484 785.903C325.52 782.663 320.224 779.024 313.952 776.25C305.452 772.49 296.404 769.815 287.502 767.2C294.005 766.817 300.851 766.628 307.297 767.691C315.113 768.98 322.844 771.891 330.197 774.762L333.155 769.936C320.386 758.519 304.545 751.867 288.562 746.141C304.812 745.247 321.871 750.398 335.372 759.345L335.788 759.082C353.204 706.481 358.2 652.079 358.09 596.96L357.011 567.75C356.6 562.328 356.266 556.276 354.977 551C354.49 549.009 354.604 547.515 354.751 545.495ZM354.612 797.748L375.266 808.16L375.229 731.765L354.612 797.748Z"/>
	<path fill="#0C8F77" d="M511.521 156.359C515.709 156.382 519.923 156.354 524.075 156.964C546.325 160.231 563.044 171.948 578.532 187.611C590.062 199.27 599.48 213.496 607.009 228C610.071 233.898 612.551 240.184 615.89 245.919L627.421 275.98C629.966 282.662 632.145 290.546 635.959 296.595L646.574 328C650.999 341.481 655.623 355.171 654.449 369.562C653.827 377.186 651.362 385.098 649.017 392.336C645.345 403.664 640.771 414.824 635.455 425.481C630.208 435.999 624.398 446.119 617.753 455.822L607.191 470.415C600.64 478.31 594.406 485.762 586.846 492.766C577.197 501.706 566.388 509.494 556.258 517.896C556.402 516.085 556.598 514.51 556.073 512.75C554.784 511.598 553.438 511.395 551.809 511.022C549.267 515.285 550.471 524.714 550.512 529.748C544.886 531.466 539.3 533.272 533.502 534.319C518.198 537.082 500.864 536.391 485.765 532.552C480.641 531.249 475.943 529.196 470.946 527.57L470.954 515.25C470.678 513.265 469.343 512.608 467.894 511.456L467.598 511.478C466.528 512.17 465.015 512.824 464.814 514.25L464.776 524.137L464.511 524.082L464.537 514.186L428.143 483.852C427.744 483.269 427.144 482.979 426.563 482.591C423.587 480.639 421.457 477.588 418.324 475.725C418.197 474.786 416.963 473.853 416.305 473.121L409.992 465.872C403.594 458.288 397.45 450.133 392.057 441.802C383.425 428.467 375.758 412.837 372.295 397.314C364.57 362.694 374.206 327.921 386.939 295.758L401.532 261.66C407.944 248.018 414.025 234.66 422.084 221.87C422.797 219.953 424.619 217.644 425.729 215.87C430.533 208.196 435.872 200.875 441.858 194.078C459.959 173.525 483.537 158.111 511.521 156.359Z"/>
	<path fill="#07604A" d="M467.894 511.456L468.535 511.116L469.997 511.578C471.65 513.587 471.004 513.817 471.5 516.25C471.826 517.849 471.975 519.072 472 520.75C475.775 520.761 481.472 526.064 484.78 528.269C486.455 529.386 488.166 530.302 489.599 531.74C489.984 532.126 490.46 532.712 491 532.878L492 533C492.919 533.193 493.463 533.412 494.453 533.438L495.75 533.5C497.495 533.997 495.85 533.816 497.273 533.945L498.773 534.125L506.548 534.916L508 535C509.951 535.34 511.518 535.27 513.5 535.378L515.25 535.5C516.214 535.45 516.847 535.221 517.844 535.362L518.75 535.5C520.989 534.541 523.383 534.776 525.75 534.5C526.686 534.391 527.124 534.204 528.094 534.362L528.75 534.5C529.796 534.052 530.562 533.811 531.711 533.923L532.25 534C533.287 533.555 533.761 533.756 534.75 533.5C535.728 533.247 536.966 533.165 537.875 532.875C539.792 532.264 537.894 532.665 539.344 532.375L541.375 531.875C542.35 531.514 543.256 531.342 544.234 531.016L549.5 529.25L549.474 519.345C549.476 517.841 549.245 515.968 549.681 514.524L549.878 514C550.21 512.409 549.706 513.563 550.367 512.242L550.75 511.5C551.698 509.088 554.565 507.741 556 505.5C557.247 503.554 559.452 502.432 560.625 500.625C562.132 498.302 564.14 496.383 566.219 494.494L567.125 493.625C568.626 491.111 571.7 489.49 572.961 486.978C573.897 485.113 576.099 484.283 577.125 482.625C578.58 480.272 581.258 478.843 582.625 476.625C583.882 474.586 585.925 473.469 587.125 471.625C588.2 469.974 589.314 468.9 590.75 467.5L590.755 466.75C591.255 466.222 591.772 465.776 592.337 465.322C592.49 465.199 593.015 464.808 593.125 464.625C593.96 463.231 593.012 464.204 593.979 463.244C594.753 462.476 595.478 461.948 595.977 460.954C596.424 460.063 596.044 460.556 596.955 459.727L597.625 459.125C598.378 458.062 598.764 457.44 599.75 456.5C599.759 455.115 600.593 455.218 601.25 454.255C602.07 453.053 600.662 454.572 602.141 453.093L602.75 452.5L602.755 451.75C603.53 451.171 604.042 450.813 604.515 449.947C605.037 448.992 604.671 449.456 605.438 448.603C605.915 448.071 606.332 447.579 606.75 447C606.757 445.908 607.014 445.991 607.75 445.255C607.757 444.505 607.97 444.528 608.503 444.002C609.275 443.241 610.147 442.53 610.423 441.439L610.503 441.002C611.544 439.992 612.513 438.96 613.125 437.625C613.569 436.657 613.289 436.93 613.898 436.32L614.25 436L614.255 435.25C615.676 434.42 618.597 428.913 619.32 427.32L621.875 422.252L622.596 422.25C610.432 445.545 594.329 464.577 576.784 483.937L551.809 511.022C549.267 515.285 550.471 524.714 550.512 529.748C544.886 531.466 539.3 533.272 533.502 534.319C518.198 537.082 500.864 536.391 485.765 532.552C480.641 531.249 475.943 529.196 470.946 527.57L470.954 515.25C470.678 513.265 469.343 512.608 467.894 511.456Z"/>
	<defs>
		<linearGradient id="gradient_1" gradientUnits="userSpaceOnUse" x1="496.79425" y1="338.29449" x2="373.11514" y2="328.26175">
			<stop offset="0" stop-color="#00AEB8"/>
			<stop offset="1" stop-color="#0DCFDA"/>
		</linearGradient>
	</defs>
	<path fill="url(#gradient_1)" d="M422.084 221.87C422.797 219.953 424.619 217.644 425.729 215.87C430.533 208.196 435.872 200.875 441.858 194.078C459.959 173.525 483.537 158.111 511.521 156.359C511.478 157.826 511.566 159.329 511.148 160.741L511.029 176.425C503.623 183.546 494.734 189.838 486.659 196.25C461.891 215.917 435.269 233.473 416.431 259.45C408.343 270.602 401.937 283.161 396.145 295.631C386.257 316.919 379.748 340.104 379.239 363.664C378.55 395.484 393.823 424.057 412.247 448.993C427.988 470.299 446.407 489.502 464.75 508.562L467.598 511.478C466.528 512.17 465.015 512.824 464.814 514.25L464.776 524.137L464.511 524.082L464.537 514.186L428.143 483.852C427.744 483.269 427.144 482.979 426.563 482.591C423.587 480.639 421.457 477.588 418.324 475.725C418.197 474.786 416.963 473.853 416.305 473.121L409.992 465.872C403.594 458.288 397.45 450.133 392.057 441.802C383.425 428.467 375.758 412.837 372.295 397.314C364.57 362.694 374.206 327.921 386.939 295.758L401.532 261.66C407.944 248.018 414.025 234.66 422.084 221.87Z"/>
	<path fill="#0EDAD0" d="M422.084 221.87C422.797 219.953 424.619 217.644 425.729 215.87C430.533 208.196 435.872 200.875 441.858 194.078C459.959 173.525 483.537 158.111 511.521 156.359C511.478 157.826 511.566 159.329 511.148 160.741C498.728 169.816 487.837 180.328 476.555 190.751C469.519 197.252 462.075 203.572 455.417 210.447C446.499 219.655 438.371 229.725 428.812 238.304C427.063 239.874 425.807 240.571 423.5 240.963C422.327 240.501 421.637 240.156 421.18 238.887C419.161 233.286 423.069 227.414 422.084 221.87Z"/>
	<path fill="#ECAC75" d="M455.052 255.46C474.87 241.496 501.98 233.743 525.995 237.932C542 240.724 557.945 247.765 571.162 257.171C577.649 261.946 585.402 266.872 590.993 272.639C597.294 278.936 603.326 285.378 608.375 292.75C610.668 296.098 612.232 299.865 613.994 303.503C616.542 308.762 619.111 313.844 620.766 319.472C616.096 319.53 613.194 320.24 609.841 323.75C606.071 327.697 604.921 333.138 603.881 338.321C603.092 338.956 602.266 339.383 601.899 340.334C601.62 341.057 601.284 341.61 600.86 342.25L599.722 342.609C599.584 340.999 599.323 339.758 598.749 338.244C596.825 337.907 596.731 337.859 595.366 336.462L593.156 330.759C591.755 327.27 588.762 324.856 585.384 323.414C570.955 317.255 551.833 316.32 537.25 322.526C530.153 325.546 527.839 330.949 525.168 337.653C520.655 335.864 514.956 334.723 510.098 335.332C506.554 335.776 503.39 336.276 499.933 337.26C498.084 331.75 496.517 327.687 491.199 324.603C481.997 319.265 470.135 318.118 459.76 318.626C456.309 318.794 452.672 318.856 449.319 319.723L448.5 319.948L446.781 320.399C438.573 322.726 433.371 325.997 429.196 333.537C428.536 335.596 427.977 337.537 426.797 339.374L426.736 339.368L426.113 344.98C423.206 340.816 421.5 334.653 419.392 329.979C420.02 328.939 420.392 328.151 420.383 326.919C420.337 320.813 419.003 314.748 418.612 308.654C418.181 301.959 418.858 295.189 418.123 288.516C428.164 275.212 441.214 264.544 455.052 255.46Z"/>
	<path fill="#470B10" d="M459.286 302.201C467.641 301.299 478.583 304.552 485.539 309.209C487.587 310.579 491.294 313.48 491.779 316.018C492.056 317.466 491.956 317.514 491.161 318.664C490.091 319.242 489.488 319.627 488.24 319.685C486.466 319.768 484.687 317.709 483.432 316.605C476.75 311.856 468.474 306.838 460 306.742C456.093 306.698 450.74 308.962 447.25 307.406L447.031 306.5L447.411 305.925C449.681 302.826 455.741 302.553 459.286 302.201Z"/>
	<path fill="#621308" d="M561.308 301.108C566.763 301.452 571.694 301.754 575.87 305.75L576.362 307.25L575.5 308.069C572.2 307.773 568.928 306.964 565.632 306.792C559.226 306.459 553.052 308.259 547.398 311.138C544.75 312.486 536.777 319.762 534.75 319.47C534.204 319.391 533.148 318.376 532.802 317.969C531.758 316.737 531.378 315.822 531.112 314.25C535.157 310.254 540.356 307.422 545.544 305.201C548.391 304.381 551.133 303.297 554.015 302.578C556.3 302.007 559.224 302.067 561.308 301.108Z"/>
	<path fill="#E78E56" d="M455.052 255.46C455.757 256.188 456.501 257.153 457.328 257.723L457.838 257.651C461.762 261.892 464.489 266.93 468.575 271.098C484.149 286.986 507.592 296.627 529.846 297.436L531.93 297.469L532.465 297.516C548.814 298.554 566.38 293.447 579.669 283.944C582.734 281.752 585.38 278.971 588.236 276.514L588.959 277.426C589.031 274.666 589.104 274.67 590.993 272.639C597.294 278.936 603.326 285.378 608.375 292.75C610.668 296.098 612.232 299.865 613.994 303.503C616.542 308.762 619.111 313.844 620.766 319.472C616.096 319.53 613.194 320.24 609.841 323.75C606.071 327.697 604.921 333.138 603.881 338.321C603.092 338.956 602.266 339.383 601.899 340.334C601.62 341.057 601.284 341.61 600.86 342.25L599.722 342.609C599.584 340.999 599.323 339.758 598.749 338.244C596.825 337.907 596.731 337.859 595.366 336.462C595.73 335.776 596.036 335.09 596.21 334.327C596.927 331.178 596.448 327.432 596.055 324.25C594.992 315.623 592.389 305.461 587.344 298.253C585.238 295.244 583.721 293.771 580 293.154C575.606 292.425 566.929 293.084 563.454 295.845C562.174 296.861 560.521 298.642 560.366 300.25L561.308 301.108C559.224 302.067 556.3 302.007 554.015 302.578C551.133 303.297 548.391 304.381 545.544 305.201C544.255 303.839 543.298 303.562 541.409 303.519C536.218 303.403 530.946 303.717 525.776 303.213C502.533 300.948 479.926 290.548 463.648 273.891C460.762 270.938 459.193 267.765 454.75 267.514C445.383 271.599 439.45 284.288 435.805 293.383C432.613 301.346 430.906 309.681 429.335 318.073C428.529 322.375 426.978 328.299 428.702 332.468L429.196 333.537C428.536 335.596 427.977 337.537 426.797 339.374L426.736 339.368L426.113 344.98C423.206 340.816 421.5 334.653 419.392 329.979C420.02 328.939 420.392 328.151 420.383 326.919C420.337 320.813 419.003 314.748 418.612 308.654C418.181 301.959 418.858 295.189 418.123 288.516C428.164 275.212 441.214 264.544 455.052 255.46Z"/>
	<defs>
		<linearGradient id="gradient_2" gradientUnits="userSpaceOnUse" x1="418.28549" y1="294.59055" x2="447.75623" y2="300.02145">
			<stop offset="0" stop-color="#5B130E"/>
			<stop offset="1" stop-color="#1F0717"/>
		</linearGradient>
	</defs>
	<path fill="url(#gradient_2)" d="M455.052 255.46C455.757 256.188 456.501 257.153 457.328 257.723L456.997 258.366C455.748 260.573 451.342 262.815 449.224 264.342C446.878 266.033 444.709 267.971 442.792 270.137C433.447 280.697 430.173 295.09 428.115 308.673C426.509 319.272 425.713 328.683 426.736 339.368L426.113 344.98C423.206 340.816 421.5 334.653 419.392 329.979C420.02 328.939 420.392 328.151 420.383 326.919C420.337 320.813 419.003 314.748 418.612 308.654C418.181 301.959 418.858 295.189 418.123 288.516C428.164 275.212 441.214 264.544 455.052 255.46Z"/>
	<path fill="#1E0B1C" d="M590.993 272.639C597.294 278.936 603.326 285.378 608.375 292.75C610.668 296.098 612.232 299.865 613.994 303.503C616.542 308.762 619.111 313.844 620.766 319.472C616.096 319.53 613.194 320.24 609.841 323.75C606.071 327.697 604.921 333.138 603.881 338.321C603.092 338.956 602.266 339.383 601.899 340.334C601.62 341.057 601.284 341.61 600.86 342.25L599.722 342.609C599.584 340.999 599.323 339.758 598.749 338.244C598.387 317.589 596.821 296.709 588.959 277.426C589.031 274.666 589.104 274.67 590.993 272.639Z"/>
	<path fill="#621308" d="M455.052 255.46C474.87 241.496 501.98 233.743 525.995 237.932C542 240.724 557.945 247.765 571.162 257.171C577.649 261.946 585.402 266.872 590.993 272.639C589.104 274.67 589.031 274.666 588.959 277.426L588.236 276.514C585.38 278.971 582.734 281.752 579.669 283.944C566.38 293.447 548.814 298.554 532.465 297.516L531.93 297.469L529.846 297.436C507.592 296.627 484.149 286.986 468.575 271.098C464.489 266.93 461.762 261.892 457.838 257.651L457.328 257.723C456.501 257.153 455.757 256.188 455.052 255.46Z"/>
	<path fill="#470B10" d="M571.162 257.171C577.649 261.946 585.402 266.872 590.993 272.639C589.104 274.67 589.031 274.666 588.959 277.426L588.236 276.514C585.38 278.971 582.734 281.752 579.669 283.944C566.38 293.447 548.814 298.554 532.465 297.516L531.93 297.469L538.486 296.443C542.078 295.943 545.768 296.031 549.259 294.93L550 294.69C553.474 293.594 557.501 291.876 560.25 289.443C566.518 283.894 572.122 275.957 571.888 267.199C571.802 263.966 570.905 261.07 571.117 257.785L571.162 257.171Z"/>
	<path fill="#7B2A15" d="M498.33 240.673C512.625 239.502 529.706 240.628 542.222 248.335C546.812 251.162 551.474 256.359 552.459 261.75C553.064 265.055 552.188 268.213 550.167 270.856C544.267 278.569 533.426 280.739 524.377 281.68C509.084 283.61 493.521 277.942 481 269.524C474.665 265.266 471.079 259.662 468.83 252.506C474.935 245.476 489.32 241.863 498.33 240.673Z"/>
	<path fill="#02073E" d="M624.065 334.883C625.699 338.635 625.986 342.98 626.512 347C628.531 362.434 629.717 379.814 626.586 395.156C617.783 438.287 581.835 466.026 548.924 491.486C536.084 501.418 523.588 511.546 510.023 520.484C505.907 518.057 502.554 515.098 498.761 512.247C481.961 499.618 467.055 484.434 451.022 470.847C440.08 461.575 428.267 451.535 419.025 440.556C402.917 421.419 392.597 393.54 390.752 368.703C388.564 339.246 398.801 310.681 418.123 288.516C418.858 295.189 418.181 301.959 418.612 308.654C419.003 314.748 420.337 320.813 420.383 326.919C420.392 328.151 420.02 328.939 419.392 329.979C421.5 334.653 423.206 340.816 426.113 344.98L426.32 349.462L425.479 361.285C425.304 363.745 425.161 365.826 425.845 368.243L425.187 369.582C426.188 371.978 426.772 374.458 427.178 377.022C430.728 399.068 444.62 420.7 462.528 433.789L480.028 445.019L480.041 463.593C486.244 465.817 492.571 468.404 498.982 469.932C509.987 472.555 520.927 472.843 532.099 471.461C536.927 470.864 541.586 469.285 546.398 468.783L545.685 444.284C552.021 441.274 558.038 438.14 563.794 434.081C584.49 419.485 593.904 396.439 597.923 372.306C597.568 370.493 597.622 367.688 598.465 366.029C599.851 358.866 599.26 351.056 599.863 343.746L599.722 342.609L600.86 342.25C601.284 341.61 601.62 341.057 601.899 340.334C602.266 339.383 603.092 338.956 603.881 338.321C604.921 333.138 606.071 327.697 609.841 323.75C613.194 320.24 616.096 319.53 620.766 319.472L624.065 334.883Z"/>
	<path fill="#EF7941" d="M603.881 338.321C604.921 333.138 606.071 327.697 609.841 323.75C613.194 320.24 616.096 319.53 620.766 319.472L624.065 334.883C623.985 340.04 624.049 345.12 622.503 350.1C621.905 352.758 620.858 355.525 619.574 357.936C616.455 364.288 613.106 370.825 606 373.442C604.04 374.164 601.923 374.638 599.983 373.648L597.923 372.306C597.568 370.493 597.622 367.688 598.465 366.029C599.851 358.866 599.26 351.056 599.863 343.746L599.722 342.609L600.86 342.25C601.284 341.61 601.62 341.057 601.899 340.334C602.266 339.383 603.092 338.956 603.881 338.321Z"/>
	<path fill="#470B10" d="M599.722 342.609L600.86 342.25C601.284 341.61 601.62 341.057 601.899 340.334C602.266 339.383 603.092 338.956 603.881 338.321C603.119 346.464 602.531 358.741 598.465 366.029C599.851 358.866 599.26 351.056 599.863 343.746L599.722 342.609Z"/>
	<path fill="#F15218" d="M619.574 357.936C617.4 353.445 617.032 348.724 616.364 343.83L610.969 355.5C609.979 357.399 609.369 358.831 607.25 359.506C606.208 359.006 606.055 358.996 605.503 358C607.033 350.613 611.523 343.177 615.947 337.154C617.981 339.173 620.143 341.345 620.725 344.25C621.06 345.923 621.017 347.989 621.999 349.425L622.503 350.1C621.905 352.758 620.858 355.525 619.574 357.936Z"/>
	<path fill="#EF7941" d="M427.178 377.022C425.463 377.565 422.854 377.85 421.052 377.616C418.271 377.254 415.843 375.21 414.145 373.112C404.937 361.734 399.829 344.045 401.592 329.581C401.933 326.78 402.91 324.272 405.27 322.581C407.221 321.184 410.99 320.795 413.25 321.563C416.108 322.534 418.068 327.477 419.392 329.979C421.5 334.653 423.206 340.816 426.113 344.98L426.32 349.462L425.479 361.285C425.304 363.745 425.161 365.826 425.845 368.243L425.187 369.582C426.188 371.978 426.772 374.458 427.178 377.022Z"/>
	<path fill="#E78E56" d="M419.636 359.176C419.968 355.807 419.218 352.702 422.25 350.627C422.79 350.257 422.958 350.226 423.5 350.029L424.345 350.541C424.236 355.277 423.266 359.03 424.766 363.75C424.98 362.911 425.174 362.096 425.479 361.285C425.304 363.745 425.161 365.826 425.845 368.243L425.187 369.582L422.888 366.533L419.636 359.176Z"/>
	<path fill="#F15218" d="M422.888 366.533L421.74 366.905C420.144 366.645 418.856 366.338 417.75 365.073C413.093 359.745 410.741 351.266 411.403 344.346C411.601 342.277 412.167 340.972 413.75 339.68C414.106 340.002 414.572 340.234 414.817 340.647C415.083 341.094 415.021 343.41 415.074 344.032C415.498 348.976 416.15 354.819 419.331 358.806L419.636 359.176L422.888 366.533Z"/>
	<path fill="#E78E56" d="M480.041 463.593C486.244 465.817 492.571 468.404 498.982 469.932C509.987 472.555 520.927 472.843 532.099 471.461C536.927 470.864 541.586 469.285 546.398 468.783C547.129 472.431 548.069 475.599 549.638 478.956C547.256 481.995 544.009 484.648 541.14 487.247C532.26 495.293 523.243 501.969 512.878 508.006C506.146 505.998 501.598 502.787 496.028 498.612C488.294 492.815 481.388 486.406 474.805 479.347C478.465 474.281 479.305 469.634 480.041 463.593Z"/>
	<path fill="#ECAC75" d="M429.196 333.537C433.371 325.997 438.573 322.726 446.781 320.399L448.5 319.948L449.319 319.723C452.672 318.856 456.309 318.794 459.76 318.626C470.135 318.118 481.997 319.265 491.199 324.603C496.517 327.687 498.084 331.75 499.933 337.26C503.39 336.276 506.554 335.776 510.098 335.332C514.956 334.723 520.655 335.864 525.168 337.653C527.839 330.949 530.153 325.546 537.25 322.526C551.833 316.32 570.955 317.255 585.384 323.414C588.762 324.856 591.755 327.27 593.156 330.759L595.366 336.462C596.731 337.859 596.825 337.907 598.749 338.244C599.323 339.758 599.584 340.999 599.722 342.609L599.863 343.746C599.26 351.056 599.851 358.866 598.465 366.029C597.622 367.688 597.568 370.493 597.923 372.306C593.904 396.439 584.49 419.485 563.794 434.081C558.038 438.14 552.021 441.274 545.685 444.284L546.398 468.783C541.586 469.285 536.927 470.864 532.099 471.461C520.927 472.843 509.987 472.555 498.982 469.932C492.571 468.404 486.244 465.817 480.041 463.593L480.028 445.019L462.528 433.789C444.62 420.7 430.728 399.068 427.178 377.022C426.772 374.458 426.188 371.978 425.187 369.582L425.845 368.243C425.161 365.826 425.304 363.745 425.479 361.285L426.32 349.462L426.113 344.98L426.736 339.368L426.797 339.374C427.977 337.537 428.536 335.596 429.196 333.537Z"/>
	<path fill="#C47115" d="M505.031 383.001C506.31 383.006 507.272 382.861 508.423 383.485C509.682 384.969 510.949 386.27 513 386.458L513.425 386.451C515.594 386.658 516.753 386.385 518.693 385.37L519.25 385.067L519.929 385.75C518.977 387.307 518.141 388.385 516.349 388.988C513.697 389.881 510.625 389.386 508.202 388.04C506.128 386.887 505.579 385.189 505.031 383.001Z"/>
	<path fill="#FBCB4B" d="M512.35 368.101C514.508 374.074 511.154 380.505 513.425 386.451L513 386.458C510.949 386.27 509.682 384.969 508.423 383.485C510.201 378.548 510.307 373.13 512.35 368.101Z"/>
	<path fill="#E78E56" d="M505.031 383.001C504.777 377.888 507.675 372.447 508.832 367.491C510.339 361.04 510.514 354.289 511.702 347.757C513.441 354.546 513.044 361.21 512.35 368.101C510.307 373.13 510.201 378.548 508.423 383.485C507.272 382.861 506.31 383.006 505.031 383.001Z"/>
	<path fill="#DA3B4D" d="M480.028 445.019L490.458 449.145C509.144 455.564 528.097 452.832 545.685 444.284L546.398 468.783C541.586 469.285 536.927 470.864 532.099 471.461C520.927 472.843 509.987 472.555 498.982 469.932C492.571 468.404 486.244 465.817 480.041 463.593L480.028 445.019Z"/>
	<path fill="#0C7B9D" d="M429.196 333.537C433.371 325.997 438.573 322.726 446.781 320.399L448.5 319.948L449.319 319.723C452.672 318.856 456.309 318.794 459.76 318.626C470.135 318.118 481.997 319.265 491.199 324.603C496.517 327.687 498.084 331.75 499.933 337.26C503.39 336.276 506.554 335.776 510.098 335.332C514.956 334.723 520.655 335.864 525.168 337.653C527.839 330.949 530.153 325.546 537.25 322.526C551.833 316.32 570.955 317.255 585.384 323.414C588.762 324.856 591.755 327.27 593.156 330.759L595.366 336.462C596.731 337.859 596.825 337.907 598.749 338.244C599.323 339.758 599.584 340.999 599.722 342.609L599.863 343.746L597.25 344.026C595.63 346.531 596.212 351.56 595.75 354.632C593.575 369.102 584.41 381.847 569.646 385.133C561.057 387.044 550.334 384.528 543.078 379.748C534.49 374.09 529.397 365.715 526.169 356.133C525.169 353.163 524.423 349.476 522.692 346.845C519.732 342.345 514.962 340.812 509.75 341.689C506.87 342.174 503.516 344.572 501.956 347C499.853 350.274 499.288 355.067 498.076 358.783C493.942 371.461 484.089 381.181 471.204 384.655C462.39 387.031 450.537 386.286 442.592 381.472C434.26 376.426 429.529 368.993 427.443 359.594C426.695 356.225 426.348 352.912 426.32 349.462L426.113 344.98L426.736 339.368L426.797 339.374C427.977 337.537 428.536 335.596 429.196 333.537Z"/>
	<path fill="#B3D4DC" d="M562.134 348.052C566.333 347.814 588.04 349.371 590.39 351.428C588.21 360.739 585.285 370.209 576.62 375.511C570.939 378.988 563.665 379.928 557.189 378.368C550.813 376.833 545.749 373.236 541.256 368.563L550.081 363.385C552.319 363.564 554.598 363.41 556.516 362.097C559.975 359.729 561.199 355.359 561.853 351.476L562.134 348.052Z"/>
	<path fill="#B3D4DC" d="M432.206 349.442C432.479 348.812 432.751 348.286 433.101 347.686C439.538 346.965 446.087 347.294 452.554 347.407C454.687 347.445 458.071 347.117 460.069 347.843C460.63 348.048 461.506 348.913 462.021 349.295L462.435 351.779C461.887 353.625 462.728 355.109 463.672 356.769C465.037 359.169 467.116 361.859 469.885 362.676C471.819 363.247 473.252 362.844 475.072 362.095L484.96 367.674C480.08 373.094 475.537 376.196 468.528 378.164C464.945 379.17 460.959 379.269 457.282 378.705L456.5 378.577C451.492 377.784 447.246 375.95 443.25 372.821C435.284 366.583 433.365 358.982 432.206 349.442Z"/>
	<path fill="#7BC2EB" d="M532.866 350.208L532.483 347.75C532.069 342.624 532.877 334.42 536.663 330.567C542.383 324.746 555.335 324.668 562.926 324.948C571.855 325.277 582.147 325.991 588.545 332.816C590.472 339.168 591.136 344.8 590.39 351.428C588.04 349.371 566.333 347.814 562.134 348.052L561.853 351.476C561.199 355.359 559.975 359.729 556.516 362.097C554.598 363.41 552.319 363.564 550.081 363.385L541.256 368.563C536.366 363.171 534.209 357.239 532.866 350.208Z"/>
	<path fill="#84D0EA" d="M551.152 337.468L550.96 336.931C550.56 335.851 550.174 334.724 549.346 333.89C547.658 332.19 544.172 331.695 545.407 328.91C548.975 327.006 552.87 326.972 556.748 326.289C560.151 325.691 566.033 325.513 569.25 326.483L573.909 327.537C566.53 330.673 559.022 334.125 553.314 339.964L552.057 339.872C551.631 339.233 551.411 338.206 551.152 337.468Z"/>
	<path fill="#84D0EA" d="M562.134 348.052C562.143 347.498 562.052 347.433 562.364 346.995C563.544 345.333 568.545 343.557 570.5 342.43C575.39 339.612 580.129 336.162 585.231 333.75C586.275 333.257 587.411 333 588.545 332.816C590.472 339.168 591.136 344.8 590.39 351.428C588.04 349.371 566.333 347.814 562.134 348.052Z"/>
	<path fill="#84D0EA" d="M532.866 350.208C533.027 348.041 533.409 346.084 534.01 344C534.692 343.505 534.999 343.399 535.854 343.245C536.787 343.077 536.599 343.18 537.376 342.86L538 342.577C539.145 342.132 539.566 342.102 540.377 341.108C541.229 340.063 542.068 339.249 543.25 338.559C546.122 336.885 547.98 336.782 551.152 337.468C551.411 338.206 551.631 339.233 552.057 339.872L553.314 339.964C556.276 340.921 559.059 342.036 560.643 344.909C561.702 346.83 561.713 349.33 561.853 351.476C561.199 355.359 559.975 359.729 556.516 362.097C554.598 363.41 552.319 363.564 550.081 363.385L541.256 368.563C536.366 363.171 534.209 357.239 532.866 350.208Z"/>
	<path fill="#FCFBFB" d="M547.667 342.312C549.74 343.813 550.707 344.711 551.33 347.219C551.681 348.631 550.815 350.601 549.988 351.724C549.119 352.906 547.675 353.885 546.197 354.026L545.421 354.075L544.321 353.872C543.45 353.319 542.825 352.52 542.417 351.572C541.616 349.71 541.873 347.377 542.654 345.565C543.487 343.632 545.789 343.112 547.667 342.312Z"/>
	<path fill="#02073E" d="M552.057 339.872L553.314 339.964C556.276 340.921 559.059 342.036 560.643 344.909C561.702 346.83 561.713 349.33 561.853 351.476C561.199 355.359 559.975 359.729 556.516 362.097C554.598 363.41 552.319 363.564 550.081 363.385C547.226 361.162 544.698 358.319 543.801 354.75L545.421 354.075L546.197 354.026C547.675 353.885 549.119 352.906 549.988 351.724C550.815 350.601 551.681 348.631 551.33 347.219C550.707 344.711 549.74 343.813 547.667 342.312C548.821 340.996 550.476 340.519 552.057 339.872Z"/>
	<path fill="#84D0EA" d="M432.206 349.442C432.041 343.252 433.244 335.635 437.772 331.043C443.652 325.082 455.686 324.001 463.645 324.234C471.449 324.463 485.853 326.139 491.415 331.979C493.811 334.494 493.736 338.205 493.564 341.495C493.078 350.773 490.867 360.335 484.96 367.674L475.072 362.095C473.252 362.844 471.819 363.247 469.885 362.676C467.116 361.859 465.037 359.169 463.672 356.769C462.728 355.109 461.887 353.625 462.435 351.779L462.021 349.295C461.506 348.913 460.63 348.048 460.069 347.843C458.071 347.117 454.687 347.445 452.554 347.407C446.087 347.294 439.538 346.965 433.101 347.686C432.751 348.286 432.479 348.812 432.206 349.442Z"/>
	<path fill="#02073E" d="M466.625 341.14L477.017 340.034C480.22 343.275 481.55 345.669 481.426 350.405C481.318 354.543 479.12 358.452 476.118 361.181L475.072 362.095C473.252 362.844 471.819 363.247 469.885 362.676C467.116 361.859 465.037 359.169 463.672 356.769C462.728 355.109 461.887 353.625 462.435 351.779L462.021 349.295C461.961 348.009 461.704 346.172 462.224 344.968C463.204 342.696 464.346 341.956 466.625 341.14Z"/>
	<path fill="#FCFBFB" d="M462.021 349.295C461.961 348.009 461.704 346.172 462.224 344.968C463.204 342.696 464.346 341.956 466.625 341.14C468.65 343.204 470.593 344.946 470.467 348.087C470.403 349.673 469.942 351.506 468.663 352.542C467.785 353.253 466.828 353.319 465.75 353.575C464.368 353.166 463.577 352.617 462.435 351.779L462.021 349.295Z"/>
	<path fill="#0C8F77" d="M556.258 517.896C566.388 509.494 577.197 501.706 586.846 492.766C594.406 485.762 600.64 478.31 607.191 470.415L618.129 475.153L628.88 480.127L655.071 492.355C663.232 496.144 673.586 499.41 680.075 505.813C685.487 511.153 688.685 518.306 691.309 525.331L756.578 699.5L775.446 748.19C782.155 764.917 790.271 782.258 793.946 799.949C796.155 810.583 795.689 820.863 791.122 830.834C788.569 836.408 783.606 844.227 777.651 846.579C774.671 847.757 769.919 847.356 766.725 847.402L743.45 847.551C744.155 851.34 744.991 854.458 746.75 857.897L749.059 859.025L750.151 859.766C750.357 864.235 751.1 869.052 750.866 873.485C747.705 877.778 745.899 880.147 744.684 885.374L743.681 885.577C739.689 886.324 734.736 885.82 730.617 885.814L706.304 885.66C704.325 891.25 702.41 895.211 697.556 898.859C696.925 899.333 696.68 899.731 696.402 900.46L695.75 899.136L453.193 899.016L394.302 899.817C392.78 898.226 391.824 895.846 390.804 893.898L353.343 893.993L353.236 893.395C351.489 893.525 350.433 893.397 348.75 892.887C347.011 890.64 344.321 887.982 343.513 885.251L343.362 884.635C343.014 883.684 342.612 883.053 342.443 882.02L342.324 881.126C341.778 877.927 341.385 871.716 342.244 868.601C342.597 867.322 342.468 868.205 342.602 867.007C342.814 865.117 343.075 863.845 343.971 862.158L343.997 861.447C345.212 852.488 352.182 843.61 358.849 838.019L358.858 837.978C369.06 828.402 382.06 820.507 396.456 820.567L401.678 821.22C399.953 818.203 398.671 815.059 397.921 811.662C393.152 790.074 391.588 767.694 388.456 745.829L370.043 625.78L359.673 567.893L354.751 545.495C354.027 539.576 352.239 532.069 349.956 526.586L426.563 482.591C427.144 482.979 427.744 483.269 428.143 483.852L464.537 514.186L464.511 524.082L464.776 524.137L464.814 514.25C465.015 512.824 466.528 512.17 467.598 511.478L467.894 511.456C469.343 512.608 470.678 513.265 470.954 515.25L470.946 527.57C475.943 529.196 480.641 531.249 485.765 532.552C500.864 536.391 518.198 537.082 533.502 534.319C539.3 533.272 544.886 531.466 550.512 529.748C550.471 524.714 549.267 515.285 551.809 511.022C553.438 511.395 554.784 511.598 556.073 512.75C556.598 514.51 556.402 516.085 556.258 517.896Z"/>
	<path fill="#06725B" d="M726.835 807.874L753.975 817.838C744.053 818.358 733.775 820.173 723.861 819.876L726.835 807.874Z"/>
	<path fill="#07604A" d="M428.143 483.852L464.537 514.186L464.511 524.082L463.48 524.426C455.239 521.433 444.539 517.235 438.528 510.676C431.952 503.502 427.797 493.619 428.143 483.852Z"/>
	<path fill="#06725B" d="M743.536 740.458C745.742 743.438 747.299 746.772 749.25 749.911C757.26 762.798 766.389 775.832 772.503 789.75L772.25 790.729C771.457 789.283 770.636 787.361 769.408 786.25C763.856 781.224 755.035 778.631 748.358 775.2C744.221 773.074 740.491 770.477 736.797 767.664L743.536 740.458Z"/>
	<path fill="#FCFBFB" d="M551.809 511.022C553.438 511.395 554.784 511.598 556.073 512.75C556.598 514.51 556.402 516.085 556.258 517.896L556.237 519.913L556.414 526.102L556.497 615.772L557.118 616.279C559.251 618.034 561.264 619.798 561.478 622.75C561.632 624.866 560.331 627.685 558.777 629.064C557.117 630.538 554.076 631.063 551.936 630.707C550.13 630.406 548.336 629.219 547.322 627.716C546.301 626.203 545.68 624.045 546.025 622.217C546.546 619.458 549.483 618.11 550.46 615.847C550.786 615.092 550.628 612.658 550.672 611.689C551.038 603.638 550.615 595.571 550.554 587.514L550.512 529.748C550.471 524.714 549.267 515.285 551.809 511.022Z"/>
	<path fill="#FCFBFB" d="M467.598 511.478L467.894 511.456C469.343 512.608 470.678 513.265 470.954 515.25L470.946 527.57L470.66 615.678L472 616.58L473.704 617.686C475.194 618.822 476.309 621.13 476.387 623C476.459 624.759 475.522 626.873 474.35 628.154C472.912 629.727 470.431 631.065 468.25 630.981C466.099 630.898 463.846 629.611 462.353 628.114C460.923 626.68 460.382 624.98 460.455 622.975C460.56 620.045 462.715 618.395 464.656 616.464L464.776 524.137L464.814 514.25C465.015 512.824 466.528 512.17 467.598 511.478Z"/>
	<path fill="#07604A" d="M665.198 567.771C666.044 574.633 665.384 580.907 665.015 587.735L664.107 607.215L661.745 659.25L659.946 691.51L642.05 691.252L665.198 567.771Z"/>
	<path fill="#06725B" d="M556.258 517.896C566.388 509.494 577.197 501.706 586.846 492.766C594.406 485.762 600.64 478.31 607.191 470.415L618.129 475.153L628.88 480.127L607.02 499.68C592.213 512.478 575.402 521.362 556.414 526.102L556.237 519.913L556.258 517.896Z"/>
	<path fill="#07604A" d="M556.258 517.896C566.388 509.494 577.197 501.706 586.846 492.766C594.406 485.762 600.64 478.31 607.191 470.415L618.129 475.153C602.114 489.564 586.555 504.182 567.872 515.176C564.56 517.125 561.203 519.691 557.283 519.875L556.63 519.909L556.237 519.913L556.258 517.896Z"/>
	<path fill="#06725B" d="M665.198 567.771L673.359 523.338L708.298 638.171L718.927 672.686C720.802 678.796 722.251 685.76 724.991 691.53L659.946 691.51L661.745 659.25L664.107 607.215L665.015 587.735C665.384 580.907 666.044 574.633 665.198 567.771Z"/>
	<path fill="#43529A" d="M642.05 691.252L659.946 691.51L724.991 691.53C731.866 691.868 738.307 692.031 743.359 697.496C745.679 700.006 747.092 702.57 748.383 705.707C749.163 708.236 749.818 710.56 749.698 713.25C749.541 716.784 748.201 720.568 747.395 724.026C746.133 729.446 745.128 735.135 743.536 740.458L736.797 767.664L731.162 790.52C729.902 795.92 729.254 802.942 726.835 807.874L723.861 819.876L709.598 875.833L733.579 865.694C738.624 863.642 744.349 861.718 749.059 859.025L750.151 859.766C750.357 864.235 751.1 869.052 750.866 873.485C747.705 877.778 745.899 880.147 744.684 885.374L743.681 885.577C739.689 886.324 734.736 885.82 730.617 885.814L706.304 885.66C704.325 891.25 702.41 895.211 697.556 898.859C696.925 899.333 696.68 899.731 696.402 900.46L695.75 899.136L453.193 899.016L394.302 899.817C392.78 898.226 391.824 895.846 390.804 893.898L353.343 893.993L353.236 893.395C351.489 893.525 350.433 893.397 348.75 892.887C347.011 890.64 344.321 887.982 343.513 885.251L343.362 884.635C343.014 883.684 342.612 883.053 342.443 882.02L342.324 881.126C341.778 877.927 341.385 871.716 342.244 868.601C342.597 867.322 342.468 868.205 342.602 867.007C342.814 865.117 343.075 863.845 343.971 862.158L343.997 861.447C345.212 852.488 352.182 843.61 358.849 838.019L358.858 837.978C369.06 828.402 382.06 820.507 396.456 820.567L401.678 821.22L406.071 822.111L423.984 740.75L428.495 720.031C429.301 716.383 429.828 712.515 431.107 709C432.45 705.304 434.766 701.856 437.535 699.084C440.951 695.664 445.571 692.998 450.357 692.171C458.518 690.76 467.143 691.259 475.407 691.25L512.234 691.256L642.05 691.252Z"/>
	<path fill="#FCFBFB" d="M458.857 699.22L537.144 699.518L681.776 699.509L707.383 699.493L728.718 699.301C730.354 699.35 733.163 699.117 734.574 699.9C735.265 700.284 735.143 700.8 735.285 701.5L734.5 702.481L479.125 702.219C471.665 702.18 463.565 701.368 456.199 702.341L455.25 702.473C454.231 702.607 453.232 702.713 452.25 703.039C448.027 704.44 444.262 708.013 442.364 711.967C439.631 717.658 438.75 725.04 437.433 731.218L431.671 757.743L408.291 864.453L402.46 890.098C401.773 892.976 401.368 896.801 399.992 899.408L398.25 899.589L397.555 899L407.458 854.5L422.894 785.015L433.415 737.989C435.23 729.858 436.445 721.491 439.096 713.582C440.507 709.373 442.416 705.898 446.057 703.207C450.064 700.245 454.041 699.524 458.857 699.22Z"/>
	<path fill="#E78E56" d="M343.971 862.158L343.997 861.447C345.212 852.488 352.182 843.61 358.849 838.019L358.707 838.465C358.269 839.776 357.787 840.703 356.984 841.827C355.495 843.908 354.856 846.258 354.438 848.75L354.309 849.481C353.268 855.841 354.546 864.38 358.367 869.641C359.598 871.336 361.323 872.731 363.443 873.07C370.253 874.161 378.87 867.875 383.893 863.876C389.172 859.673 393.958 853.717 399.817 850.456L390.77 890.708C388.987 891.569 384.614 891.219 382.501 891.286L384.784 891.75L384.319 892.754C375.856 892.842 366.6 891.594 358.2 892.894L353.236 893.395C351.489 893.525 350.433 893.397 348.75 892.887C347.011 890.64 344.321 887.982 343.513 885.251L343.362 884.635C343.014 883.684 342.612 883.053 342.443 882.02L342.324 881.126C341.778 877.927 341.385 871.716 342.244 868.601C342.597 867.322 342.468 868.205 342.602 867.007C342.814 865.117 343.075 863.845 343.971 862.158Z"/>
	<path fill="#07604A" d="M343.971 862.158C347.741 874.232 351.884 883.968 362.216 891.978L382.501 891.286L384.784 891.75L384.319 892.754C375.856 892.842 366.6 891.594 358.2 892.894L353.236 893.395C351.489 893.525 350.433 893.397 348.75 892.887C347.011 890.64 344.321 887.982 343.513 885.251L343.362 884.635C343.014 883.684 342.612 883.053 342.443 882.02L342.324 881.126C341.778 877.927 341.385 871.716 342.244 868.601C342.597 867.322 342.468 868.205 342.602 867.007C342.814 865.117 343.075 863.845 343.971 862.158Z"/>
	<path fill="#ECAC75" d="M396.456 820.567L401.678 821.22L406.071 822.111L399.817 850.456C393.958 853.717 389.172 859.673 383.893 863.876C378.87 867.875 370.253 874.161 363.443 873.07C361.323 872.731 359.598 871.336 358.367 869.641C354.546 864.38 353.268 855.841 354.309 849.481L354.438 848.75C354.856 846.258 355.495 843.908 356.984 841.827C357.787 840.703 358.269 839.776 358.707 838.465L358.849 838.019L358.858 837.978C369.06 828.402 382.06 820.507 396.456 820.567Z"/>
	<path fill="#FBCB4B" d="M546.068 829.028C541.061 825.341 536.669 821.054 533.564 815.627C528.748 807.209 527.981 796.77 530.484 787.5C532.995 778.201 539.676 770.644 548.001 765.956C555.59 761.684 566.22 760.494 574.562 762.968C584.176 765.819 592.281 773.278 596.892 782.059C602.069 791.917 601.071 802.391 597.907 812.7C591.922 822.767 585.708 829.924 573.949 832.902C563.906 835.445 555.175 833.472 546.068 829.028Z"/>
	<path fill="#FCFBFB" d="M563.551 782.15C567.263 782.452 569.761 782.953 572.995 784.911C576.347 786.94 578.895 790.341 579.75 794.184C580.741 798.642 580.03 803.959 577.351 807.75C574.451 811.855 570.137 813.513 565.432 814.529C562.315 814.55 559.163 813.898 556.541 812.126C552.826 809.615 549.928 805.008 549.282 800.582C548.67 796.391 549.976 791.759 552.507 788.391C555.067 784.985 559.439 782.813 563.551 782.15Z"/>
	<path fill="#162F5B" d="M597.907 812.7C606.43 807.253 614.223 800.831 622.14 794.541L653.496 769.25L733.782 703.601L744.826 706.679C746.36 707.184 747.029 706.421 748.383 705.707C749.163 708.236 749.818 710.56 749.698 713.25C749.541 716.784 748.201 720.568 747.395 724.026C746.133 729.446 745.128 735.135 743.536 740.458L736.797 767.664L731.162 790.52C729.902 795.92 729.254 802.942 726.835 807.874L723.861 819.876L709.598 875.833L733.579 865.694C738.624 863.642 744.349 861.718 749.059 859.025L750.151 859.766C750.357 864.235 751.1 869.052 750.866 873.485C747.705 877.778 745.899 880.147 744.684 885.374L743.681 885.577C739.689 886.324 734.736 885.82 730.617 885.814L706.304 885.66C704.325 891.25 702.41 895.211 697.556 898.859C696.925 899.333 696.68 899.731 696.402 900.46L695.75 899.136L453.193 899.016C455.776 896.237 459.583 893.897 462.616 891.595L483.07 876.226L546.068 829.028C555.175 833.472 563.906 835.445 573.949 832.902C585.708 829.924 591.922 822.767 597.907 812.7Z"/>
</svg>
