<?xml version="1.0" encoding="utf-8" ?>
<svg xmlns="http://www.w3.org/2000/svg" xmlns:xlink="http://www.w3.org/1999/xlink" width="1024" height="1024">
	<path fill="#E89B23" d="M138.246 260.578C139.802 260.546 141.555 260.787 142.998 261.381C145.377 262.361 147.445 265.013 148.25 267.416C149.104 269.966 148.864 273.224 147.491 275.558C145.76 278.503 143.451 279.758 140.25 280.643C138.876 280.676 137.379 280.544 136.096 280.023C133.282 278.883 130.942 276.471 129.88 273.63C129.094 271.524 129.149 268.61 130.147 266.592C131.895 263.055 134.656 261.771 138.246 260.578Z"/>
	<path fill="#0AB79E" d="M237.292 255.166L276.051 255.174C281.648 255.202 290.631 254.182 295.809 256.197L296.5 256.49C297.913 257.074 299.246 257.651 300.5 258.545C303.72 260.84 306.288 264.264 306.848 268.25C307.239 271.034 307.053 274.038 307.053 276.847C307.055 282.56 307.665 287.645 304.063 292.5C301.044 296.568 297.278 298.081 292.431 298.783L257.655 298.809C250.603 298.791 242.437 299.548 235.5 298.473C233.706 298.195 232.158 297.548 230.585 296.652C226.752 294.466 224.031 290.904 223.078 286.597C222.478 283.886 222.641 280.88 222.601 278.117C222.514 272.09 221.989 266.93 225.678 261.75C228.402 257.924 232.749 255.802 237.292 255.166Z"/>
	<path fill="#E89B23" d="M174.42 187.649L197.176 187.626L240.462 187.577L274.741 187.522C280.832 187.511 287.139 187.166 293.21 187.58C295.085 187.708 296.996 188.14 298.722 188.89C302.678 190.609 305.559 194.523 306.942 198.503C307.822 201.035 307.568 204.113 307.573 206.764C307.582 211.978 308.253 217.982 305.702 222.703C303.049 227.611 298.853 229.463 293.735 230.843C285.411 231.536 276.875 231.275 268.524 231.291L224.531 231.173L191.999 231.106C186.527 231.093 180.707 231.499 175.282 230.924C173.225 230.706 171.028 229.906 169.202 228.963C165.049 226.817 162.374 223.527 161.183 219.012C160.559 216.645 160.836 213.587 160.831 211.128C160.821 205.735 159.945 199.189 162.969 194.5C165.758 190.175 169.618 188.598 174.42 187.649Z"/>
	<path fill="#0AB79E" d="M219.883 830.129L220.428 830.029L284.033 830.021L284.045 834.618L284.085 855.008L284.082 863.976L284.035 878.42L283.981 886.979C284.064 888.129 283.999 889.376 284.491 890.425L285.122 889.755C293.144 888.636 301.411 888.958 309.5 888.958L344.996 889.015L381.463 889.204L381.605 907.513L399.435 895.241L410.442 889.126L456.659 888.995L456.979 889.073L496.496 888.895L498.578 889.25C499.706 891.187 498.826 897.952 498.783 900.361L498.627 919.795C498.604 922.526 498.929 925.851 498.321 928.492L496.879 932.522L497.764 933.435L539.956 933.489L632.67 933.53L659.601 933.572C664.7 933.577 670.038 933.948 675.072 933.171C683.388 934.132 692.438 933.471 700.833 933.472L735.264 933.405L784.026 933.53L809.036 933.359L809.571 933.647C811.711 934.487 815.751 933.968 818.089 933.958L838.196 933.934L920.465 934.146L934.922 934.166C937.724 934.144 941.22 933.763 943.92 934.41C946.47 935.021 948.834 936.777 950.032 939.125C951.119 941.256 951.543 943.812 950.679 946.099C949.86 948.268 947.795 950.341 945.674 951.235C944.469 951.743 943.299 951.894 942 951.942L878.374 951.942L736.372 951.446L200.449 951.639L117.687 951.716L90.6612 951.768C86.5872 951.777 80.6192 952.574 76.8999 951.06C74.8232 950.215 72.8404 948.407 71.9748 946.317C71.17 944.372 71.1391 941.612 71.9595 939.664C73.0447 937.087 75.4227 935.335 77.798 934.047L108.552 933.832L108.474 905.684L93.6105 905.84L93.6673 854.309L93.6072 841.015C93.5863 838.664 93.2774 835.794 93.6343 833.5C93.7374 832.838 94.0267 832.425 94.3734 831.87C95.7596 831.128 97.5194 831.359 99.0552 831.327C102.405 831.259 106.245 831.573 109.525 830.936L110.433 830.747C112.99 830.079 116.614 830.365 119.306 830.339L138.711 830.211L219.883 830.129Z"/>
	<path fill="#4C3D3D" d="M108.474 905.684C112.579 905.164 116.966 905.485 121.106 905.486L143.383 905.498L219.964 905.624L220.07 905.944L220.189 933.891L108.552 933.832L108.474 905.684Z"/>
	<path fill="#E89B23" d="M496.496 888.895L498.578 889.25C499.706 891.187 498.826 897.952 498.783 900.361L498.627 919.795C498.604 922.526 498.929 925.851 498.321 928.492L496.879 932.522C496.388 932.908 495.541 933.791 495 934.002C493.977 934.399 491.668 934.237 490.506 934.238L479.382 934.181L442.408 934.145L364.488 934.418L313.85 934.074L239.807 934.286C242.523 922.895 252.866 914.331 261.418 907.147C264.945 904.603 285.703 892.582 286.198 890.746L284.491 890.425L285.122 889.755C293.144 888.636 301.411 888.958 309.5 888.958L344.996 889.015L381.463 889.204L381.605 907.513L399.435 895.241L410.442 889.126L456.659 888.995L456.979 889.073L496.496 888.895Z"/>
	<path fill="#7A5F5A" d="M219.883 830.129L220.428 830.029L284.033 830.021L284.045 834.618L284.085 855.008L284.082 863.976L284.035 878.42L283.981 886.979C284.064 888.129 283.999 889.376 284.491 890.425L286.198 890.746C285.703 892.582 264.945 904.603 261.418 907.147C252.866 914.331 242.523 922.895 239.807 934.286C237.785 933.863 235.421 934.063 233.341 934.038L220.189 933.891L220.07 905.944L219.964 905.624L143.383 905.498L121.106 905.486C116.966 905.485 112.579 905.164 108.474 905.684L93.6105 905.84L93.6673 854.309L93.6072 841.015C93.5863 838.664 93.2774 835.794 93.6343 833.5C93.7374 832.838 94.0267 832.425 94.3734 831.87C95.7596 831.128 97.5194 831.359 99.0552 831.327C102.405 831.259 106.245 831.573 109.525 830.936L110.433 830.747C112.99 830.079 116.614 830.365 119.306 830.339L138.711 830.211L219.883 830.129Z"/>
	<path fill="#4C3D3D" d="M118.126 855.75C120.732 855.202 123.747 855.518 126.427 855.519L141.291 855.519L200.098 855.535L200.083 863.512L123.228 863.859L123.207 877.906C125.67 878.818 130.15 878.28 132.875 878.302L199.99 878.083L199.953 886.315L119.596 886.481C117.897 886.466 117.018 886.35 115.821 885.134C115.058 883.025 114.861 860.255 115.477 858C115.883 856.514 116.876 856.368 118.126 855.75Z"/>
	<path fill="#3C2926" d="M219.883 830.129L220.428 830.029L284.033 830.021L284.045 834.618L284.085 855.008L284.082 863.976L284.035 878.42L283.981 886.979C284.064 888.129 283.999 889.376 284.491 890.425L286.198 890.746C285.703 892.582 264.945 904.603 261.418 907.147C252.866 914.331 242.523 922.895 239.807 934.286C237.785 933.863 235.421 934.063 233.341 934.038L220.189 933.891L220.07 905.944L219.964 905.624L219.997 834.593L219.883 830.129Z"/>
	<path fill="#4C3D3D" d="M219.883 830.129L220.428 830.029L284.033 830.021L284.045 834.618L219.997 834.593L219.883 830.129Z"/>
	<path fill="#1D1517" d="M220.07 905.944L249.789 906.136C252.647 906.142 259.134 905.467 261.418 907.147C252.866 914.331 242.523 922.895 239.807 934.286C237.785 933.863 235.421 934.063 233.341 934.038L220.189 933.891L220.07 905.944Z"/>
	<path fill="#105C51" d="M341.627 669.946C353.61 668.445 365.744 668.918 377.806 668.919L428.802 668.949L451.829 668.985C455.308 668.992 459.615 668.468 462.925 669.347L462.185 669.815L462.471 670.492C463.935 669.685 465.24 669.231 466.905 669.097C471.583 668.722 476.459 668.983 481.162 668.98L507.888 668.969L590.229 669.07L616.791 669.127C620.153 672.073 625.126 673.581 629.104 675.608C644.745 682.029 659.428 685.915 676.309 687.735C684.23 688.345 692.421 688.562 700.344 687.8C709.356 687.09 718.113 684.811 726.701 682.096C725.579 700.453 722.106 719.478 715.169 736.548C706.68 754.105 696.788 767.532 679.133 776.857C675.811 778.737 672.047 780.494 668.999 782.772C680.518 789.143 691.295 795.708 703.749 800.193C700.521 805.93 694.112 810.8 689.133 815.024L667.504 832.962C659.562 831.513 655.978 832.754 649.345 837.086C645.251 837.523 639.956 840.845 636.096 842.521L618.051 850.117L633.627 860.825C660.78 877.84 689.409 890.04 720.144 898.847C722.11 897.52 722.99 894.16 724.283 892.056C726.804 887.952 729.928 884.144 734 881.493L734.55 881.124C742.535 875.852 754.481 873.19 763.909 875.14C773.582 877.139 784.661 882.792 790.13 891.399C793.055 896.003 794.425 901.079 795.25 906.422L797.407 906.75C832.143 903.378 869.844 893.567 892.449 864.764C897.715 858.053 900.574 849.393 908.676 845.652C913.274 843.529 938.105 833.192 941.75 833.555C942.679 833.648 944.14 834.434 945.061 834.773C937.707 845.24 930.344 855.548 921.826 865.115C902.74 886.551 878.309 904.767 852.31 916.872C838.243 923.422 823.687 928.363 809.036 933.359L784.026 933.53L735.264 933.405L700.833 933.472C692.438 933.471 683.388 934.132 675.072 933.171C670.038 933.948 664.7 933.577 659.601 933.572L632.67 933.53L539.956 933.489L497.764 933.435L496.879 932.522L498.321 928.492C498.929 925.851 498.604 922.526 498.627 919.795L498.783 900.361C498.826 897.952 499.706 891.187 498.578 889.25L496.496 888.895L456.979 889.073L456.659 888.995L410.442 889.126L399.435 895.241L381.605 907.513L381.463 889.204L344.996 889.015L309.5 888.958C301.411 888.958 293.144 888.636 285.122 889.755L284.491 890.425C283.999 889.376 284.064 888.129 283.981 886.979L284.035 878.42L284.082 863.976L284.085 855.008L284.045 834.618L284.033 830.021L284.013 817.777L283.969 809.091L283.889 794.64L283.928 783.014L283.954 754.999C283.975 749.029 283.667 742.824 284.411 736.904C285.299 729.837 287.317 722.733 289.763 716.054C291.138 713.113 292.248 710.118 293.833 707.27C298.321 699.204 305.405 690.562 312.694 684.868C321.575 677.931 330.965 673.395 341.627 669.946Z"/>
	<path fill="#02122F" d="M700.344 687.8C709.356 687.09 718.113 684.811 726.701 682.096C725.579 700.453 722.106 719.478 715.169 736.548C706.68 754.105 696.788 767.532 679.133 776.857C680.404 771.754 685.026 767.925 688.261 763.904C697.793 752.055 707.929 736.674 710.903 721.54C712.644 712.685 712.336 702.967 711.728 694C709.3 698.17 708.283 704.074 706.758 708.724C702.271 722.409 696.302 734.181 687.33 745.527C677.422 758.058 662.952 766.403 647.027 768.156C643.413 768.553 637.847 769.145 634.884 766.756C647.631 763.067 660.468 756.909 670.652 748.335C689.244 732.681 698.172 711.669 700.344 687.8Z"/>
	<path fill="white" d="M539.956 933.489C540.701 927.633 540.008 920.745 540.015 914.795L540.011 872.239L539.98 860.717C539.974 859.006 539.709 857.156 540.582 855.627C577.445 893.234 623.126 922.093 675.072 933.171C670.038 933.948 664.7 933.577 659.601 933.572L632.67 933.53L539.956 933.489Z"/>
	<path fill="#5ABEA7" d="M496.223 796.01C500.419 801.996 503.861 808.527 507.806 814.688C516.937 828.944 528.145 844.125 540.582 855.627C539.709 857.156 539.974 859.006 539.98 860.717L540.011 872.239L540.015 914.795C540.008 920.745 540.701 927.633 539.956 933.489L497.764 933.435L496.879 932.522L498.321 928.492C498.929 925.851 498.604 922.526 498.627 919.795L498.783 900.361C498.826 897.952 499.706 891.187 498.578 889.25L496.496 888.895L496.223 796.01Z"/>
	<path fill="#0AB79E" d="M462.471 670.492C463.935 669.685 465.24 669.231 466.905 669.097C471.583 668.722 476.459 668.983 481.162 668.98L507.888 668.969L590.229 669.07L616.791 669.127C620.153 672.073 625.126 673.581 629.104 675.608C644.745 682.029 659.428 685.915 676.309 687.735C671.532 704.032 658.55 719.234 643.694 727.396C627.834 736.111 607.933 735.51 590.361 735.509L546.572 734.572L506.079 734.093L493.112 734.037C488.949 734.039 485.11 733.76 481.333 735.819L480.784 736.105C470.261 741.7 463.202 756.887 459.985 767.75C456.433 779.741 456.496 791.891 456.468 804.26L456.461 835.17L456.659 888.995L410.442 889.126L399.966 889L400.099 763.526C400.875 756.912 400.696 748.997 400.428 742.301C399.947 744.871 399.955 747.637 399.785 750.25C399.002 748.996 399.089 747.546 398.989 746.112L398.475 734.252C398.66 723.769 400.74 713.108 406.156 704.03C410.546 696.671 416.165 690.195 423.25 685.307C434.262 677.709 449.301 673.076 462.185 669.815L462.471 670.492Z"/>
	<path fill="#105C51" d="M590.229 669.07L616.791 669.127C620.153 672.073 625.126 673.581 629.104 675.608C623.467 677.165 602.358 673.242 596.935 670.622C594.684 669.535 592.695 669.386 590.229 669.07Z"/>
	<defs>
		<linearGradient id="gradient_0" gradientUnits="userSpaceOnUse" x1="426.98077" y1="711.47382" x2="411.99155" y2="696.50928">
			<stop offset="0" stop-color="#010002"/>
			<stop offset="1" stop-color="#02132E"/>
		</linearGradient>
	</defs>
	<path fill="url(#gradient_0)" d="M398.475 734.252C398.66 723.769 400.74 713.108 406.156 704.03C410.546 696.671 416.165 690.195 423.25 685.307C434.262 677.709 449.301 673.076 462.185 669.815L462.471 670.492C438.756 680.505 415.507 690.161 405.161 715.82C401.829 724.084 400.365 733.423 400.428 742.301C399.947 744.871 399.955 747.637 399.785 750.25C399.002 748.996 399.089 747.546 398.989 746.112L398.475 734.252Z"/>
	<path fill="#0AB79E" d="M341.627 669.946C353.61 668.445 365.744 668.918 377.806 668.919L428.802 668.949L451.829 668.985C455.308 668.992 459.615 668.468 462.925 669.347L462.185 669.815C449.301 673.076 434.262 677.709 423.25 685.307C416.165 690.195 410.546 696.671 406.156 704.03C400.74 713.108 398.66 723.769 398.475 734.252L398.989 746.112C399.089 747.546 399.002 748.996 399.785 750.25C399.955 747.637 399.947 744.871 400.428 742.301C400.696 748.997 400.875 756.912 400.099 763.526L399.966 889L410.442 889.126L399.435 895.241L381.605 907.513L381.463 889.204L344.996 889.015L309.5 888.958C301.411 888.958 293.144 888.636 285.122 889.755L284.491 890.425C283.999 889.376 284.064 888.129 283.981 886.979L284.035 878.42L284.082 863.976L284.085 855.008L284.045 834.618L284.033 830.021L284.013 817.777L283.969 809.091L283.889 794.64L283.928 783.014L283.954 754.999C283.975 749.029 283.667 742.824 284.411 736.904C285.299 729.837 287.317 722.733 289.763 716.054C291.138 713.113 292.248 710.118 293.833 707.27C298.321 699.204 305.405 690.562 312.694 684.868C321.575 677.931 330.965 673.395 341.627 669.946Z"/>
	<path fill="#105C51" d="M344.996 889.015L345.028 857.344L344.973 792.217L344.981 771.897C344.987 768.136 344.64 763.954 345.36 760.262C346.091 756.518 348.505 753.198 351.108 750.511C363.466 737.76 381.434 734.536 398.475 734.252L398.989 746.112C399.089 747.546 399.002 748.996 399.785 750.25C399.955 747.637 399.947 744.871 400.428 742.301C400.696 748.997 400.875 756.912 400.099 763.526L399.966 889L410.442 889.126L399.435 895.241L381.605 907.513L381.463 889.204L344.996 889.015Z"/>
	<path fill="#5ABEA7" d="M383.574 888.296C383.331 887.582 383.135 887.006 383.056 886.25C382.475 880.67 382.985 874.42 382.979 868.76L382.971 831.668L382.98 792.586C382.986 786.373 382.469 779.751 383.189 773.611C383.5 770.955 384.406 768.63 386.177 766.596C389.185 763.141 395.83 763.764 400.099 763.526L399.966 889L410.442 889.126L399.435 895.241C393.506 894.137 388.376 891.938 383.574 888.296Z"/>
	<path fill="#0AB79E" d="M856.601 340.352L857.25 341.821C868.32 343.959 879.471 347.689 889.188 353.477C892.484 355.44 895.294 357.752 898.37 360.019C904.511 364.796 910.237 369.636 915.337 375.548C917.37 377.903 919.19 380.435 921.028 382.942C921.406 383.458 922.488 385.243 922.971 385.534C923.404 385.795 934.465 385.382 936.25 385.655C947.388 387.359 956.81 398.992 957.949 409.811C959.173 421.437 953.468 434.915 946.207 443.778L945.86 444.176C935.468 457.352 919.882 463.217 903.586 465.116L896.54 465.564C894.8 465.76 892.974 465.631 891.604 466.75C886.951 478.83 880.87 490.362 874.373 501.542C871.645 506.234 869.01 511.241 865.904 515.689C884.469 528.629 899.499 543.517 914.553 560.296C932.299 581.577 947.577 605.001 958.126 630.729C972.835 661.837 981.302 700.781 978.011 735.173C975.505 771.02 964.651 804.493 945.061 834.773C944.14 834.434 942.679 833.648 941.75 833.555C938.105 833.192 913.274 843.529 908.676 845.652C900.574 849.393 897.715 858.053 892.449 864.764C869.844 893.567 832.143 903.378 797.407 906.75L795.25 906.422C794.425 901.079 793.055 896.003 790.13 891.399C784.661 882.792 773.582 877.139 763.909 875.14C754.481 873.19 742.535 875.852 734.55 881.124L734 881.493C729.928 884.144 726.804 887.952 724.283 892.056C722.99 894.16 722.11 897.52 720.144 898.847C689.409 890.04 660.78 877.84 633.627 860.825L618.051 850.117L636.096 842.521C639.956 840.845 645.251 837.523 649.345 837.086C655.978 832.754 659.562 831.513 667.504 832.962L689.133 815.024C694.112 810.8 700.521 805.93 703.749 800.193C691.295 795.708 680.518 789.143 668.999 782.772C672.047 780.494 675.811 778.737 679.133 776.857C696.788 767.532 706.68 754.105 715.169 736.548C722.106 719.478 725.579 700.453 726.701 682.096C718.113 684.811 709.356 687.09 700.344 687.8C692.421 688.562 684.23 688.345 676.309 687.735C659.428 685.915 644.745 682.029 629.104 675.608C625.126 673.581 620.153 672.073 616.791 669.127C619.318 669.061 622.333 669.231 624.704 668.292L625.25 668.053C626.939 667.326 628.291 666.355 629.268 664.75C630.333 662.998 630.888 660.532 630.277 658.54C629.446 655.837 627.997 654.54 625.536 653.322L616.694 653.074L581.624 653.177C576.323 653.229 570.375 653.921 565.137 653.28C563.524 653.082 562.288 652.215 561.001 651.285C555.908 646.637 555.487 639.8 554.599 633.346L552.486 617.84C559.416 612.167 565.511 608.161 574.25 605.955L575.192 605.711C592.993 601.341 612.949 611.708 628.495 619.141L626.019 501.153C624.92 482.572 624.063 463.161 620.572 444.861L619.646 427.239L619.72 422.381C641.431 422.563 666.249 424.297 686.557 432.616L686.651 432.734C701.323 437.469 715.786 445.71 728.215 454.723C728.083 446.284 727.997 437.638 729.039 429.25C731.349 410.65 738.566 392.653 749.947 377.786C762.945 360.809 783.348 346.895 804.874 344.095L808.753 344.625L808.75 346.5L808.325 346.868L808.552 347.213C810.452 346.529 817.521 344.531 818.326 343.072C820.484 342.01 823.932 341.677 826.316 341.349C834.329 340.249 842.405 340.36 850.479 340.269L850.695 349.963C851.981 350.927 854.132 350.418 855.75 350.326L856.801 349.5L856.601 340.352Z"/>
	<path fill="#02122F" d="M932.998 409.75C933.571 409.545 933.855 409.411 934.504 409.349C936.101 409.196 937.402 409.886 938.359 411.125C939.135 412.13 939.377 413.776 939.088 415C938.776 416.324 937.763 416.777 936.75 417.508L935.879 417.805C934.596 418.033 933.234 417.675 932.291 416.75C931.405 415.882 930.91 414.491 931.011 413.25C931.154 411.486 931.841 410.911 932.998 409.75Z"/>
	<path fill="#07EDC8" d="M911.369 738.045L911.598 738.046C914.318 738.008 916.706 737.934 919.25 739.117C922.932 740.83 925.846 744.33 927.056 748.192C928.155 751.701 927.44 755.482 925.771 758.672C923.76 762.515 920.641 764.353 916.641 765.638C914.162 765.879 911.348 765.853 909.059 764.789C904.682 762.755 901.584 759.135 900.151 754.511C899.212 751.481 900.157 747.679 901.661 744.984C903.765 741.214 907.384 739.22 911.369 738.045Z"/>
	<path fill="#E89B23" d="M649.345 837.086C655.978 832.754 659.562 831.513 667.504 832.962C671.963 835.206 675.47 838.122 677.232 843.01C678.792 847.336 678.399 852.28 676.428 856.396C674.479 860.463 671.153 863.626 666.875 865.119C662.791 866.543 658.282 866.308 654.39 864.409C650.139 862.334 647.175 858.577 645.788 854.101C644.403 849.632 645.013 844.324 647.35 840.251L649.345 837.086Z"/>
	<path fill="#E89B23" d="M875.699 604.142C879.287 603.892 883.348 604.577 886.547 606.212C891.154 608.567 894.59 613 895.978 617.952C897.458 623.233 896.313 629.691 893.397 634.266C890.11 639.424 885.776 641.266 880.08 642.59C874.994 642.577 870.682 642.048 866.378 638.966C862.418 636.129 859.152 631.31 858.378 626.476C857.508 621.046 858.814 616.094 862.181 611.726C865.745 607.1 870.021 604.948 875.699 604.142Z"/>
	<path fill="#105C51" d="M831.645 498.671C829.638 496.98 825.911 495.696 823.5 494.441C813.505 489.237 803.849 482.039 798.677 471.737C797.245 468.883 796.507 466.333 797.638 463.209C801.105 453.632 813.405 447.862 822.037 444.141C823.687 446.411 825.312 448.775 827.167 450.883C828.134 451.983 831.116 454.202 831.621 455.334C831.709 455.53 831.605 457.205 831.602 457.547L831.535 465.452C841.09 465.505 851.288 464.809 860.756 465.873L831.609 465.742L831.645 498.671Z"/>
	<path fill="#02122F" d="M822.037 444.141C821.114 442.232 819.914 439.878 819.724 437.775L820.956 437.596C823.982 437.505 826.893 438.553 829.792 439.33C837.869 441.492 845.626 444.617 853.623 447.04C863.99 450.181 874.452 453.01 885.132 454.869C896.52 456.852 908.059 457.117 919.478 455.201C923.171 454.582 927.351 452.467 931.007 452.733C936.487 450.67 940.57 447.379 945.47 444.409L945.86 444.176C935.468 457.352 919.882 463.217 903.586 465.116L896.54 465.564L860.756 465.873C851.288 464.809 841.09 465.505 831.535 465.452L831.602 457.547C831.605 457.205 831.709 455.53 831.621 455.334C831.116 454.202 828.134 451.983 827.167 450.883C825.312 448.775 823.687 446.411 822.037 444.141Z"/>
	<path fill="#105C51" d="M820.956 437.596C823.982 437.505 826.893 438.553 829.792 439.33C837.869 441.492 845.626 444.617 853.623 447.04C863.99 450.181 874.452 453.01 885.132 454.869C896.52 456.852 908.059 457.117 919.478 455.201C923.171 454.582 927.351 452.467 931.007 452.733L929.372 453.858C912.351 463.659 890.222 462.975 871.412 460.361C864.616 459.417 857.639 458.289 851 456.524C842.43 454.246 835.365 450.61 828.364 445.155C825.675 443.06 822.699 440.56 820.956 437.596Z"/>
	<path fill="white" d="M850.494 363.606C856.819 363.358 861.894 363.961 867.292 367.519C872.957 371.254 876.592 376.961 877.972 383.56C879.185 389.362 877.394 395.487 874.081 400.301C869.94 406.318 864.68 409.061 857.636 410.464C855.085 410.459 852.368 410.812 849.87 410.196L849.25 410.028C846.584 409.328 844.07 408.412 841.673 407.029C835.76 403.618 831.468 397.39 829.912 390.816C828.686 385.637 830.167 379.48 832.986 375.08C837.151 368.577 843.135 365.195 850.494 363.606Z"/>
	<path fill="#1D1517" d="M861.473 379.057C863.163 378.909 865.341 378.699 866.961 379.227C869.008 379.894 870.655 381.668 871.616 383.537C872.915 386.062 873.239 389.164 872.295 391.863C871.276 394.776 869.025 396.088 866.403 397.397C864.95 397.491 863.389 397.648 861.955 397.341C859.547 396.826 857.533 395.321 856.29 393.203C854.961 390.939 854.811 388.231 855.513 385.75C856.433 382.5 858.652 380.691 861.473 379.057Z"/>
	<path fill="#5ABEA7" d="M860.756 465.873L896.54 465.564C894.8 465.76 892.974 465.631 891.604 466.75C886.951 478.83 880.87 490.362 874.373 501.542C871.645 506.234 869.01 511.241 865.904 515.689C857.261 510.546 849.734 503.81 840.487 499.48C836.976 497.836 835.791 498.111 832.127 499.458L831.645 498.671L831.609 465.742L860.756 465.873Z"/>
	<path fill="#E89B23" d="M849.513 801.127C855.378 800.155 862.426 801.753 867.576 804.548C874.114 808.096 878.894 814.495 880.939 821.607C883.007 828.804 881.939 836.311 878.184 842.76C873.631 850.578 866.749 854.967 858.154 857.19C850.829 858.127 844.126 856.697 837.963 852.548C831.809 848.404 827.06 841.645 825.651 834.335C824.197 826.789 825.647 819.659 829.952 813.271C834.54 806.464 841.617 802.641 849.513 801.127Z"/>
	<path fill="#07EDC8" d="M832.127 499.458C835.791 498.111 836.976 497.836 840.487 499.48C849.734 503.81 857.261 510.546 865.904 515.689C884.469 528.629 899.499 543.517 914.553 560.296C913.056 563.556 910.426 566.432 907.385 568.344L906.737 568.737C903.885 570.493 900.668 571.762 897.342 572.281C888.678 573.632 880.589 571.752 873.5 566.516C869.448 563.522 866.057 559.609 862.612 555.958L847.413 539.843C842.18 534.41 835.893 529.153 831.306 523.21C829.003 520.227 827.151 516.606 826.701 512.828C826.064 507.469 829.103 503.43 832.127 499.458Z"/>
	<path fill="#105C51" d="M978.011 735.173L966.528 738.096C954.499 740.505 943.115 737.155 933.123 730.383C919.464 721.127 911.999 708.043 908.969 692.014C906.481 678.847 910.719 664.157 918.152 653.25C927.337 639.774 942.608 633.602 958.126 630.729C972.835 661.837 981.302 700.781 978.011 735.173Z"/>
	<path fill="#105C51" d="M686.651 432.734C701.323 437.469 715.786 445.71 728.215 454.723C728.083 446.284 727.997 437.638 729.039 429.25C731.349 410.65 738.566 392.653 749.947 377.786C762.945 360.809 783.348 346.895 804.874 344.095L808.753 344.625L808.75 346.5L808.325 346.868L808.552 347.213C802.545 350.243 796.479 352.992 790.842 356.703C777.664 365.377 767.528 379.033 762.514 393.967C760.214 400.817 759.365 408.38 758.604 415.529L756.009 444.562L753.007 479.166C766.196 494.744 777.178 511.122 786.748 529.126C788.333 532.107 791.59 537.041 791.344 540.344L790.022 541.602L790.192 542.024C795.632 555.183 804.084 567.444 811.488 579.558L836.517 621.5C842.152 631.597 847.763 641.991 851.419 653C856.973 669.722 858.565 687.761 857.054 705.273C855.897 718.673 853.607 731.113 848.549 743.62C837.994 769.716 817.952 788.114 792.156 798.823C786.623 801.12 780.908 803.059 775.064 804.392C772.54 804.967 769.943 805.726 767.354 805.313L766.858 805.581C763.261 807.24 758.504 807.304 754.582 807.503C736.925 808.396 720.399 806.432 703.749 800.193C691.295 795.708 680.518 789.143 668.999 782.772C672.047 780.494 675.811 778.737 679.133 776.857C696.788 767.532 706.68 754.105 715.169 736.548C722.106 719.478 725.579 700.453 726.701 682.096C718.113 684.811 709.356 687.09 700.344 687.8C692.421 688.562 684.23 688.345 676.309 687.735C659.428 685.915 644.745 682.029 629.104 675.608C625.126 673.581 620.153 672.073 616.791 669.127C619.318 669.061 622.333 669.231 624.704 668.292L625.25 668.053C626.939 667.326 628.291 666.355 629.268 664.75C630.333 662.998 630.888 660.532 630.277 658.54C629.446 655.837 627.997 654.54 625.536 653.322L616.694 653.074L581.624 653.177C576.323 653.229 570.375 653.921 565.137 653.28C563.524 653.082 562.288 652.215 561.001 651.285C555.908 646.637 555.487 639.8 554.599 633.346L552.486 617.84C559.416 612.167 565.511 608.161 574.25 605.955L575.192 605.711C592.993 601.341 612.949 611.708 628.495 619.141L626.019 501.153C624.92 482.572 624.063 463.161 620.572 444.861L619.646 427.239L619.72 422.381C641.431 422.563 666.249 424.297 686.557 432.616L686.651 432.734Z"/>
	<path fill="#E89B23" d="M781.023 544.881C782.923 550.265 784.176 555.698 785.275 561.292C787.246 570.773 788.133 580.586 788.28 590.264L788.053 603.019C786.054 627.636 775.501 649.174 756.463 665.195C747.608 672.647 737.473 678.035 726.701 682.096C718.113 684.811 709.356 687.09 700.344 687.8C692.421 688.562 684.23 688.345 676.309 687.735C659.428 685.915 644.745 682.029 629.104 675.608C625.126 673.581 620.153 672.073 616.791 669.127C619.318 669.061 622.333 669.231 624.704 668.292L625.25 668.053C626.939 667.326 628.291 666.355 629.268 664.75C630.333 662.998 630.888 660.532 630.277 658.54C629.446 655.837 627.997 654.54 625.536 653.322L616.694 653.074L581.624 653.177C576.323 653.229 570.375 653.921 565.137 653.28C563.524 653.082 562.288 652.215 561.001 651.285C555.908 646.637 555.487 639.8 554.599 633.346L552.486 617.84C559.416 612.167 565.511 608.161 574.25 605.955L575.192 605.711C592.993 601.341 612.949 611.708 628.495 619.141C648.137 630.271 669.033 640.007 692.087 633.749C695.676 632.775 698.877 631.476 702.205 629.857C707.392 626.889 711.711 623.576 715.684 619.071C725.402 608.052 726.134 596.919 725.291 582.855C724.906 582.609 725.122 581.956 725.048 581.505L723.134 572.319L781.023 544.881Z"/>
	<path fill="#02122F" d="M568.26 632.988L581.48 633.518L564.529 646.351C564.266 643.253 563.481 635.729 564.75 633.109L568.26 632.988Z"/>
	<path fill="white" d="M581.48 633.518C583.412 632.365 588.317 628.725 590.475 629.135C593.102 629.634 596.235 633.093 598.126 634.909C604.345 640.884 610.205 647.406 616.694 653.074L581.624 653.177C576.323 653.229 570.375 653.921 565.137 653.28C563.524 653.082 562.288 652.215 561.001 651.285C561.696 649.174 562.554 647.453 564.529 646.351L581.48 633.518Z"/>
	<path fill="white" d="M788.053 603.019C797.403 612.603 805.395 624.028 811.695 635.839C813.311 638.871 815.372 642.324 816.388 645.608C828.918 678.047 831.769 715.881 817.39 748.215C806.801 772.029 788.579 790.691 767.354 805.313L766.858 805.581C763.261 807.24 758.504 807.304 754.582 807.503C736.925 808.396 720.399 806.432 703.749 800.193C691.295 795.708 680.518 789.143 668.999 782.772C672.047 780.494 675.811 778.737 679.133 776.857C696.788 767.532 706.68 754.105 715.169 736.548C722.106 719.478 725.579 700.453 726.701 682.096C737.473 678.035 747.608 672.647 756.463 665.195C775.501 649.174 786.054 627.636 788.053 603.019Z"/>
	<path fill="#5ABEA7" d="M788.053 603.019C797.403 612.603 805.395 624.028 811.695 635.839C813.311 638.871 815.372 642.324 816.388 645.608C813.233 647.081 810.347 650.099 807.865 652.495L797.458 662.44L754.457 702.544L730.97 724.886C726.271 729.161 722.239 733.441 716.335 736.034L715.169 736.548C722.106 719.478 725.579 700.453 726.701 682.096C737.473 678.035 747.608 672.647 756.463 665.195C775.501 649.174 786.054 627.636 788.053 603.019Z"/>
	<path fill="#5ABEA7" d="M125.697 617.433C120.113 609.741 114.524 602.135 109.692 593.931C92.3133 564.424 81.3775 530.679 80.3419 496.337C79.0572 453.734 93.076 411.641 122.617 380.413C143.031 358.835 171.975 342.118 202.035 339.6C218.962 338.183 236.186 339.622 253.168 339.103C277.972 338.346 302.411 327.466 319.143 309.048C329.154 298.028 336.165 285.236 341.247 271.307C344.118 263.439 345.361 255.542 347.486 247.5C348.834 242.396 350.746 237.396 352.818 232.547C363.946 206.508 380.735 181.306 400.206 160.75C453.345 104.651 526.847 73.1261 603.891 71.1555C679.621 69.2184 755.588 100.737 810.131 152.686C851.461 192.051 881.763 245.212 892.778 301.375C896.59 320.81 897.891 340.268 898.37 360.019C895.294 357.752 892.484 355.44 889.188 353.477C879.471 347.689 868.32 343.959 857.25 341.821L856.601 340.352L856.801 349.5L855.75 350.326C854.132 350.418 851.981 350.927 850.695 349.963L850.479 340.269C842.405 340.36 834.329 340.249 826.316 341.349C823.932 341.677 820.484 342.01 818.326 343.072C817.521 344.531 810.452 346.529 808.552 347.213L808.325 346.868L808.75 346.5L808.753 344.625L804.874 344.095C783.348 346.895 762.945 360.809 749.947 377.786C738.566 392.653 731.349 410.65 729.039 429.25C727.997 437.638 728.083 446.284 728.215 454.723C715.786 445.71 701.323 437.469 686.651 432.734L686.557 432.616C666.249 424.297 641.431 422.563 619.72 422.381L619.646 427.239L620.572 444.861C624.063 463.161 624.92 482.572 626.019 501.153L628.495 619.141C612.949 611.708 592.993 601.341 575.192 605.711L574.25 605.955C565.511 608.161 559.416 612.167 552.486 617.84L554.599 633.346C555.487 639.8 555.908 646.637 561.001 651.285C562.288 652.215 563.524 653.082 565.137 653.28C570.375 653.921 576.323 653.229 581.624 653.177L616.694 653.074L625.536 653.322C627.997 654.54 629.446 655.837 630.277 658.54C630.888 660.532 630.333 662.998 629.268 664.75C628.291 666.355 626.939 667.326 625.25 668.053L624.704 668.292C622.333 669.231 619.318 669.061 616.791 669.127L590.229 669.07L507.888 668.969L481.162 668.98C476.459 668.983 471.583 668.722 466.905 669.097C465.24 669.231 463.935 669.685 462.471 670.492L462.185 669.815L462.925 669.347C459.615 668.468 455.308 668.992 451.829 668.985L428.802 668.949L377.806 668.919C365.744 668.918 353.61 668.445 341.627 669.946C330.965 673.395 321.575 677.931 312.694 684.868C305.405 690.562 298.321 699.204 293.833 707.27C292.248 710.118 291.138 713.113 289.763 716.054C287.317 722.733 285.299 729.837 284.411 736.904C283.667 742.824 283.975 749.029 283.954 754.999L283.928 783.014L283.889 794.64L283.969 809.091L284.013 817.777L284.033 830.021L220.428 830.029L219.883 830.129L138.711 830.211L119.306 830.339C116.614 830.365 112.99 830.079 110.433 830.747C110.202 825.076 109.655 818.544 110.427 812.958L110.668 812.144C111.317 810.602 112.504 810.063 113.931 809.386C115.198 809.019 116.528 808.979 117.837 808.87C112.256 808.159 106.431 808.355 100.804 808.262C99.0456 808.233 96.2581 808.641 94.9946 807.5L94.9153 804.214C94.4609 801.267 94.7201 797.898 94.6954 794.899L94.7433 777.913C78.1606 767.629 62.3764 756.323 50.1773 740.834C42.7248 731.372 36.2017 719.898 37.7656 707.399C38.8433 698.787 43.2043 691.198 50.0773 685.895C63.4526 675.575 81.2094 675.155 97.25 677.511C113.39 679.882 127.532 687.149 139.992 697.591C143.752 700.742 147.546 703.917 150.462 707.89L150.941 708.549L151.696 708.395C150.558 688.255 132.232 676.198 123.107 659.591C120.186 655.752 118.03 648.542 117.618 643.75C116.744 633.597 119.155 625.176 125.697 617.433Z"/>
	<path fill="#02122F" d="M804.874 344.095C806.307 343.843 807.777 343.675 809.124 343.107C809.706 341.407 809.507 339.506 809.521 337.728L809.576 326.203C806.885 325.267 804.57 324.241 802.991 321.75C801.257 319.016 800.734 315.337 801.642 312.214C802.603 308.912 804.74 306.364 807.778 304.746C810.411 303.343 813.44 302.89 816.297 303.938C819.198 305.002 821.919 307.239 823.2 310.082C824.474 312.906 824.772 315.971 823.654 318.885C822.212 322.644 819.684 324.57 816.121 326.063L815.44 326.341C815.408 330.894 814.435 338.843 815.75 342.997L818.326 343.072C817.521 344.531 810.452 346.529 808.552 347.213L808.325 346.868L808.75 346.5L808.753 344.625L804.874 344.095Z"/>
	<path fill="#02122F" d="M850.479 340.269L850.168 325.979L849.498 325.605C846.437 323.878 843.781 321.622 842.837 318.062C842.08 315.206 842.692 311.932 844.201 309.424C845.925 306.559 848.965 304.316 852.265 303.65C855.28 303.043 858.731 304.018 861.137 305.873C863.889 307.995 865.428 310.373 865.733 313.848C866.049 317.452 864.405 320.517 862.049 323.122C860.464 324.875 858.985 325.717 856.752 326.43C856.185 330.925 856.582 335.81 856.601 340.352L856.801 349.5L855.75 350.326C854.132 350.418 851.981 350.927 850.695 349.963L850.479 340.269Z"/>
	<path fill="#E89B23" d="M233.169 389.75C234.946 390.393 236.834 394.373 237.853 395.976C241.948 402.42 247.06 404.782 252.661 409.485L254.419 411.014C251.01 414.123 246.303 415.605 243.01 418.828C239.134 422.621 237.554 428.105 234.122 432.25L233.822 432.191C232.561 431.634 231.882 430.25 231.18 429.144C229.196 426.019 227.534 422.307 225.013 419.594C223.764 418.25 222.302 417.009 220.75 416.031C218.485 414.604 214.056 413.293 213.077 410.75C214.347 408.039 221.092 405.195 223.56 402.827C227.536 399.013 229.982 394.176 233.169 389.75Z"/>
	<path fill="#E89B23" d="M563.567 110.25L564.716 110.115C568.24 112.634 568.959 118.319 571.75 121.677C575.105 125.713 580.491 127.678 584.586 130.959C580.889 134.314 575.909 135.95 572.593 139.6C568.881 143.686 568.117 149.107 563.75 153.008C559.426 150.89 558.208 142.703 554.877 139.25C552.693 136.985 548.95 135.408 546.217 133.8C544.969 133.065 543.397 132.245 543.005 130.75C544.863 127.436 552.457 124.81 555.591 121.871C559.067 118.611 560.01 113.564 563.567 110.25Z"/>
	<path fill="#02122F" d="M619.411 394.254C619.97 385.479 619.555 376.308 619.465 367.5C619.434 364.509 618.923 361.096 619.344 358.15C619.699 355.665 620.842 353.276 621.435 350.836C621.903 348.911 622.12 346.895 622.981 345.096C626.723 346.682 630.396 347.506 634.426 347.983L634.46 376.17C634.476 380.408 635.065 385.787 634.294 389.898C633.675 393.194 632.197 396.212 629.816 398.587C626.822 401.573 623.62 401.787 619.549 402.092L619.411 394.254Z"/>
	<path fill="#105C51" d="M321.975 668.794C324.595 670.466 337.452 669.214 341.627 669.946C330.965 673.395 321.575 677.931 312.694 684.868C305.405 690.562 298.321 699.204 293.833 707.27C292.248 710.118 291.138 713.113 289.763 716.054L284.305 715.744L280.839 715.66L233.646 715.505C249.991 692.49 277.996 680.016 304.5 672.615C310.264 671.006 316.21 670.299 321.975 668.794Z"/>
	<path fill="#E89B23" d="M280.839 715.66L271.815 705.417C270.321 703.675 268.44 701.817 267.428 699.75C267.953 698.59 268.08 698.655 269.25 698.101C272.293 699.127 281.743 712.472 284.305 715.744L280.839 715.66Z"/>
	<path fill="white" d="M733.08 192.648C737.188 192.28 741.679 192.992 745.5 194.538C750.906 196.725 755.293 201.051 757.561 206.411C760.029 212.242 759.874 216.359 757.52 222.1C759.592 221.143 761.706 220.114 763.908 219.492C767.406 218.504 771.463 218.745 774.57 220.767C777.138 222.438 785.464 234.806 786.011 237.764L720.75 237.583L667.746 237.826C668.767 235.154 669.523 232.44 671.075 230C672.673 227.488 675.035 225.679 678 225.142C682.696 224.292 686.201 226.14 689.869 228.778C689.899 226.484 689.976 224.249 690.475 222C691.654 216.68 694.449 212.807 699.154 210.026C704.158 207.069 708.78 207.583 714.136 208.921C714.945 206.759 715.753 204.406 717.046 202.487C720.932 196.715 726.421 193.903 733.08 192.648Z"/>
	<path fill="#BF6008" d="M233.646 715.505L280.839 715.66L284.305 715.744L289.763 716.054C287.317 722.733 285.299 729.837 284.411 736.904C283.667 742.824 283.975 749.029 283.954 754.999L283.928 783.014L219.569 783.022L219.403 782.392L219.681 715.523L233.646 715.505Z"/>
	<path fill="#893F06" d="M232.49 736.368L269.99 736.365L269.799 746.805L232.478 746.947L232.49 736.368Z"/>
	<path fill="#893F06" d="M268.982 757.75L270.053 758.25L270.084 768.637L232.738 768.707L232.826 757.858L268.982 757.75Z"/>
	<path fill="#E89B23" d="M558.975 398.801C570.177 397.074 581.085 393.023 590.48 386.641C606.015 376.086 614.993 360.31 618.387 342.168L622.981 345.096C622.12 346.895 621.903 348.911 621.435 350.836C620.842 353.276 619.699 355.665 619.344 358.15C618.923 361.096 619.434 364.509 619.465 367.5C619.555 376.308 619.97 385.479 619.411 394.254L619.549 402.092L619.72 422.381L619.646 427.239L620.572 444.861C619.342 448.655 618.182 452.37 615.606 455.504C609.287 463.19 598.542 468.672 588.649 469.55C579.844 470.332 570.647 468.99 563.762 463.022C556.854 457.034 557.669 450.547 557.14 442.366C557.991 440.194 557.827 437.687 557.866 435.388L558.026 422.516L558.501 415.807L558.631 412.237C559.166 407.856 558.926 403.219 558.975 398.801Z"/>
	<path fill="#BF6008" d="M558.975 398.801C570.177 397.074 581.085 393.023 590.48 386.641C606.015 376.086 614.993 360.31 618.387 342.168L622.981 345.096C622.12 346.895 621.903 348.911 621.435 350.836C620.842 353.276 619.699 355.665 619.344 358.15C618.923 361.096 619.434 364.509 619.465 367.5C619.555 376.308 619.97 385.479 619.411 394.254L619.137 367.235C615.47 375.19 610.665 382.199 605.071 388.912C594.657 401.411 577.16 411.148 560.75 412.312C560.009 412.364 559.368 412.311 558.631 412.237C559.166 407.856 558.926 403.219 558.975 398.801Z"/>
	<path fill="#105C51" d="M464.431 222.731C462.958 215.264 465.192 207.562 468.633 200.993C469.668 201.397 471.987 205.478 473.069 206.601C476.125 209.773 479.584 211.751 483.46 213.769C482.411 203.922 483.163 194.817 485.913 185.347L488.132 187.873C501.825 201.192 528.574 191.152 544.532 187.782C552.639 186.07 560.932 184.795 569.226 184.588C583.626 184.229 597.858 186.226 608.63 196.548L608.347 197.079C607.275 199.505 607.285 202.403 606.25 204.949C604.429 209.432 601.948 213.637 599.477 217.783C592.931 228.764 586.856 236.679 574.875 242.009C559.932 248.657 542.654 247.641 526.826 245.688C515.557 244.297 503.894 242.07 493.295 237.901C486.395 235.186 478.864 231.345 473.25 226.407C470.214 223.737 467.735 220.683 464.99 217.75L464.61 218L464.431 222.731Z"/>
	<path fill="#02122F" d="M464.431 222.731L464.61 218L464.99 217.75C467.735 220.683 470.214 223.737 473.25 226.407C478.864 231.345 486.395 235.186 493.295 237.901C503.894 242.07 515.557 244.297 526.826 245.688C542.654 247.641 559.932 248.657 574.875 242.009C586.856 236.679 592.931 228.764 599.477 217.783C601.948 213.637 604.429 209.432 606.25 204.949C607.285 202.403 607.275 199.505 608.347 197.079L608.63 196.548C612.304 200.381 615.793 204.307 618.261 209.054C618.655 209.81 619.983 213.108 620.578 213.358C621.69 213.825 623.745 213.823 625 214.098C627.502 214.646 629.981 215.633 632.292 216.723C653.225 226.591 661.538 246.135 661.072 268.25C660.854 278.59 658.6 287.881 656.06 297.829C652.821 295.251 649.245 293.03 645.184 292.051L644.5 291.895C642.98 291.533 641.551 291.446 639.991 291.426C628.38 291.277 621.248 298.095 613.454 305.604C611.778 298.351 611.367 291.797 613.031 284.5C613.292 283.357 614.54 280.346 614.437 279.353C614.416 279.149 611.756 276.623 611.45 276.306C609.252 274.033 607.249 271.764 605.561 269.076C602.57 264.315 601.639 259.859 601.122 254.331C598.58 256.656 596.171 258.688 593.062 260.256C586.941 263.345 579.982 264.613 573.511 266.76C560.149 271.192 546.997 279.512 532.432 278.946C525.649 278.682 519.634 277.182 513.3 274.788C511.654 274.166 509.203 273.426 507.976 272.187L507.646 271.767L493.157 266.807C487.59 270.467 483.393 275.743 482.139 282.409C481.768 284.38 481.867 286.461 481.89 288.459C480.39 286.165 478.717 283.555 477.984 280.889C476.121 274.113 477.125 264.684 478.079 257.822C478.185 257.059 478.889 254.128 478.71 253.55C478.379 252.487 475.544 249.838 474.737 248.762C469.155 241.319 464.919 232.12 464.431 222.731Z"/>
	<path fill="#BF6008" d="M603.367 243.605C602.91 246.634 601.477 249.204 601.422 252.311L601.122 254.331C598.58 256.656 596.171 258.688 593.062 260.256C586.941 263.345 579.982 264.613 573.511 266.76C560.149 271.192 546.997 279.512 532.432 278.946C525.649 278.682 519.634 277.182 513.3 274.788C511.654 274.166 509.203 273.426 507.976 272.187L507.646 271.767L519.685 272.689C544.221 274.207 569.222 269.346 589.638 255.125C594.519 251.725 598.917 247.543 603.367 243.605Z"/>
	<path fill="#105C51" d="M603.367 243.605L604.122 242.928C611.655 235.901 616.146 224.202 619.864 214.796C627.365 215.94 632.804 217.66 637.556 224C642.549 230.66 644.009 241.126 642.821 249.219L642.539 250.75L642.409 251.494C641.285 257.492 637.107 263.579 632 266.885C629.422 268.553 626.749 269.491 623.75 270.028L623.026 270.166C619.32 270.818 615.727 269.022 612.8 266.832C609.885 264.65 607.362 261.821 605.514 258.694C604.22 256.505 603.373 254.039 601.422 252.311C601.477 249.204 602.91 246.634 603.367 243.605Z"/>
	<path fill="#E89B23" d="M507.646 271.767L507.976 272.187C509.203 273.426 511.654 274.166 513.3 274.788C519.634 277.182 525.649 278.682 532.432 278.946C546.997 279.512 560.149 271.192 573.511 266.76C579.982 264.613 586.941 263.345 593.062 260.256C596.171 258.688 598.58 256.656 601.122 254.331C601.639 259.859 602.57 264.315 605.561 269.076C607.249 271.764 609.252 274.033 611.45 276.306C611.756 276.623 614.416 279.149 614.437 279.353C614.54 280.346 613.292 283.357 613.031 284.5C611.367 291.797 611.778 298.351 613.454 305.604C621.248 298.095 628.38 291.277 639.991 291.426C641.551 291.446 642.98 291.533 644.5 291.895L645.184 292.051C649.245 293.03 652.821 295.251 656.06 297.829C659.926 302.104 662.834 306.447 664.552 312L664.814 312.825C666.785 319.417 665.15 327.815 661.805 333.722C658.107 340.253 651.355 344.979 644.144 346.839C641.011 347.647 637.66 347.995 634.426 347.983C630.396 347.506 626.723 346.682 622.981 345.096L618.387 342.168C614.993 360.31 606.015 376.086 590.48 386.641C581.085 393.023 570.177 397.074 558.975 398.801C543.884 401.799 527.952 397.914 514.872 390.119C499.408 380.904 487.941 366.967 483.605 349.347L483.402 348.5C481.352 340.122 482.01 331.093 482.004 322.513L481.89 288.459C481.867 286.461 481.768 284.38 482.139 282.409C483.393 275.743 487.59 270.467 493.157 266.807L507.646 271.767Z"/>
	<path fill="#BF6008" d="M548.179 308.846C547.483 313.602 545.179 317.711 548.053 322.294C548.883 323.617 550.251 325.085 550.75 326.535C551.165 327.738 551.061 329.107 550.522 330.25C549.762 331.862 548.784 331.996 547.25 332.464C546.374 332.256 545.911 332.027 545.186 331.454C542.972 329.704 542.088 326.192 541.97 323.531C541.706 317.585 544.346 313.082 548.179 308.846Z"/>
	<path fill="#02122F" d="M525.837 350.25C526.312 350.241 526.834 350.019 527.264 350.223C528.218 350.674 529.642 352.877 530.359 353.775C532.856 356.899 535.713 358.659 539.519 359.876C547.311 362.366 557.351 361.25 563.377 355.401C564.921 353.902 565.788 351.64 567.75 350.674C569.358 351.185 569.466 351.097 570.361 352.5L569.293 354.754C565.063 360.088 560.038 363.654 553.25 364.884C546.305 366.143 537.661 364.846 531.798 360.758C528.557 358.498 525.314 355.274 524.613 351.25L525.837 350.25Z"/>
	<path fill="#BF6008" d="M638.15 301.315C641.86 301.538 645.195 301.951 647.854 304.883C649.105 306.261 649.88 307.544 650.56 309.25L650.807 309.834C652.27 313.49 651.848 318.497 650.713 322.168C649.4 326.412 647.077 331.007 643.134 333.4C642.612 333.716 642.061 333.903 641.5 334.131L640.921 334.38C637.774 335.694 634.503 335.81 631.161 335.381C631.833 335.241 633.387 335.125 633.918 334.803C635.218 334.015 636.442 330.565 637.339 329.216L644.551 319.12C644.109 316.997 641.926 314.661 641.138 312.441C639.848 308.812 639.538 304.933 638.15 301.315Z"/>
	<path fill="#893F06" d="M631.723 303.907L632.105 303.703C634.127 302.581 635.908 301.899 638.15 301.315C639.538 304.933 639.848 308.812 641.138 312.441C641.926 314.661 644.109 316.997 644.551 319.12L637.339 329.216C636.442 330.565 635.218 334.015 633.918 334.803C633.387 335.125 631.833 335.241 631.161 335.381C629.494 334.199 626.51 333.686 624.543 332.471L623.006 331.25C622.89 329.736 622.963 328.335 623.18 326.836C624.249 319.442 625.309 308.7 631.723 303.907Z"/>
	<path fill="#BF6008" d="M624.543 332.471L623.006 331.25C622.89 329.736 622.963 328.335 623.18 326.836C624.249 319.442 625.309 308.7 631.723 303.907C632.293 310.297 635.874 321.619 631.372 326.882C630.056 328.421 628.336 329.492 626.666 330.595C625.873 331.119 625.091 331.68 624.543 332.471Z"/>
	<path fill="white" d="M500.524 286.588C505.747 286.142 510.547 286.381 515.131 289.215C519.264 291.769 522.537 296.253 523.501 301.035L523.636 301.75C524.746 307.256 523.86 312.633 520.746 317.36C517.794 321.842 513.276 324.309 508.13 325.409C503.424 325.733 499.362 325.54 495.056 323.352C490.051 320.808 486.824 315.986 485.193 310.75C483.748 306.113 484.209 300.692 486.571 296.426C489.673 290.824 494.551 288.158 500.524 286.588Z"/>
	<path fill="#02122F" d="M498.171 297.25L498.582 297.128C501.415 296.521 504.971 297.211 507.426 298.757C510.166 300.482 511.874 303.87 512.361 307C512.885 310.363 512.006 313.597 509.816 316.212C506.861 319.742 503.15 320.285 498.866 320.649C496.736 320.067 494.387 319.315 492.892 317.599C489.824 314.078 490.464 310.134 490.618 305.803C492.644 305.843 494.769 306.485 496.75 306.911C497.871 306.341 498.47 305.924 499.25 304.933C498.547 302.908 496.912 301.415 495.205 300.166L494.616 299.75C495.703 298.432 496.62 297.938 498.171 297.25Z"/>
	<path fill="white" d="M575.233 285.078C580.083 284.617 584.761 285.162 589.005 287.737C594.198 290.887 598.283 296.267 599.646 302.233C600.81 307.33 599.496 312.45 596.638 316.75C593.281 321.802 588.168 324.214 582.409 325.484C576.903 325.679 572.313 325.435 567.421 322.528C562.722 319.737 558.839 314.121 557.499 308.902C556.303 304.238 557.024 298.962 559.6 294.873C563.213 289.139 568.858 286.453 575.233 285.078Z"/>
	<path fill="#02122F" d="M573.012 296.572C576.436 296.374 579.339 296.947 582.104 299.063C584.788 301.118 586.705 304.205 587.028 307.606C587.358 311.081 586.1 314.206 583.765 316.727C580.85 319.876 577.479 320.787 573.33 320.962C570.661 320.38 568.12 319.353 566.25 317.292C563.843 314.639 563.335 311.136 563.605 307.688C563.706 306.395 563.472 306.483 564.5 305.593C566.087 306.481 567.461 307.272 569.25 307.652C570.525 306.725 570.7 306.746 571.107 305.25C570.768 303.939 570.416 303.343 569.497 302.328C568.869 301.635 568.356 301.091 567.924 300.25C569.502 298.497 570.881 297.572 573.012 296.572Z"/>
	<path fill="#E89B23" d="M125.697 617.433C130.823 613.009 137.118 609.322 144 608.609C148.014 608.194 154.744 609.634 157.92 607.47C158.849 605.858 159.412 604.002 158.531 602.25C157.465 600.132 155.366 598.295 153.771 596.562C151.816 594.439 150.025 592.169 148.332 589.832C138.774 576.638 130.955 559.695 127.41 543.728C124.635 531.226 126.092 518.631 133.094 507.75C141.252 495.072 152.883 486.277 167.751 483.136C178.242 480.92 190.553 482.866 199.612 488.803C212.169 495.069 223.497 507.868 228.017 521.194L229.79 527.875C230.9 532.627 230.882 537.943 230.742 542.814C230.291 558.512 226.714 578.024 218.029 591.414L213.981 596.673C211.917 599.527 208.886 602.868 208.654 606.5C209.255 608.242 209.658 609.365 211.484 610.157C214.04 611.266 217.459 611.238 220.215 611.585C231.61 613.02 239.698 618.09 244.448 628.843C246.869 634.324 247.972 640.462 248.081 646.439C247.76 650.245 247.449 653.907 246.4 657.604C243.267 668.643 236.101 677.358 228.72 685.854C224.228 691.025 220.07 696.137 217.487 702.573C215.806 706.759 215.319 711.066 214.894 715.519L219.681 715.523L219.403 782.392L219.569 783.022L283.928 783.014L283.889 794.64L283.969 809.091L284.013 817.777L284.033 830.021L220.428 830.029L219.883 830.129L138.711 830.211L119.306 830.339C116.614 830.365 112.99 830.079 110.433 830.747C110.202 825.076 109.655 818.544 110.427 812.958L110.668 812.144C111.317 810.602 112.504 810.063 113.931 809.386C115.198 809.019 116.528 808.979 117.837 808.87C112.256 808.159 106.431 808.355 100.804 808.262C99.0456 808.233 96.2581 808.641 94.9946 807.5L94.9153 804.214C94.4609 801.267 94.7201 797.898 94.6954 794.899L94.7433 777.913C78.1606 767.629 62.3764 756.323 50.1773 740.834C42.7248 731.372 36.2017 719.898 37.7656 707.399C38.8433 698.787 43.2043 691.198 50.0773 685.895C63.4526 675.575 81.2094 675.155 97.25 677.511C113.39 679.882 127.532 687.149 139.992 697.591C143.752 700.742 147.546 703.917 150.462 707.89L150.941 708.549L151.696 708.395C150.558 688.255 132.232 676.198 123.107 659.591C120.186 655.752 118.03 648.542 117.618 643.75C116.744 633.597 119.155 625.176 125.697 617.433Z"/>
	<path fill="#1D1517" d="M219.569 783.022L283.928 783.014L283.889 794.64L283.969 809.091L284.013 817.777L284.033 830.021L220.428 830.029L219.883 830.129L138.711 830.211L119.306 830.339C116.614 830.365 112.99 830.079 110.433 830.747C110.202 825.076 109.655 818.544 110.427 812.958L110.668 812.144C111.317 810.602 112.504 810.063 113.931 809.386C115.198 809.019 116.528 808.979 117.837 808.87C121.768 809.276 125.871 808.992 129.828 808.98L150.533 808.946L219.445 808.94L219.454 794.527L219.569 783.022Z"/>
	<path fill="#3C2926" d="M182.84 816.018C185.476 815.975 188.191 815.303 190.686 815.309L284.013 817.777L284.033 830.021L220.428 830.029C219.855 828.158 220.129 825.605 220.096 823.628C212.294 821.395 204.593 819.221 196.586 817.838L182.84 816.018Z"/>
	<path fill="#4C3D3D" d="M110.433 830.747C110.202 825.076 109.655 818.544 110.427 812.958L111.264 813.979L182.84 816.018L196.586 817.838C204.593 819.221 212.294 821.395 220.096 823.628C220.129 825.605 219.855 828.158 220.428 830.029L219.883 830.129L138.711 830.211L119.306 830.339C116.614 830.365 112.99 830.079 110.433 830.747Z"/>
	<path fill="#BF6008" d="M219.569 783.022L283.928 783.014L283.889 794.64L283.969 809.091L113.931 809.386C115.198 809.019 116.528 808.979 117.837 808.87C121.768 809.276 125.871 808.992 129.828 808.98L150.533 808.946L219.445 808.94L219.454 794.527L219.569 783.022Z"/>
	<path fill="#893F06" d="M219.569 783.022L283.928 783.014L283.889 794.64C277.365 793.886 270.103 794.531 263.468 794.529L219.454 794.527L219.569 783.022Z"/>
	<path fill="#0AB79E" d="M94.7433 777.913C78.1606 767.629 62.3764 756.323 50.1773 740.834C42.7248 731.372 36.2017 719.898 37.7656 707.399C38.8433 698.787 43.2043 691.198 50.0773 685.895C63.4526 675.575 81.2094 675.155 97.25 677.511C113.39 679.882 127.532 687.149 139.992 697.591C143.752 700.742 147.546 703.917 150.462 707.89L150.941 708.549L151.696 708.395C152.437 710.141 152.253 713.505 152.561 715.546L105.287 715.867L108.441 700.724C108.912 698.091 109.64 695.435 109.581 692.75C108.333 691.911 108.135 692.043 106.608 692.125C104.789 694.809 104.913 701.865 104.303 705.318C103.672 708.884 102.731 712.405 101.853 715.916L95.0305 715.85L94.8897 726.04L73.6929 706.247C71.7864 704.444 67.7611 699.545 65.25 698.994L63.8226 699.318L63.5173 700.25L71.2542 708.578C67.4853 708.589 63.1202 707.574 59.5 706.512C58.4429 707.062 58.5111 707.127 58.0644 708.25C60.8516 710.952 68.3406 711.276 72.2579 711.911C73.6575 712.137 75.1467 712.326 76.3556 713.124C78.6993 714.671 93.7969 728.253 94.7706 730.25C94.9679 730.655 95.0454 732.032 95.0414 732.5L94.8833 733.954C93.2661 735 90.8835 735.234 89.0158 735.632L73.7711 738.689C71.9727 739.056 69.4931 739.192 68.1488 740.522C68.2556 741.879 68.3142 741.876 69.25 742.879L94.9851 737.113L94.7433 777.913Z"/>
	<path fill="#105C51" d="M125.697 617.433C130.823 613.009 137.118 609.322 144 608.609C148.014 608.194 154.744 609.634 157.92 607.47C158.849 605.858 159.412 604.002 158.531 602.25C157.465 600.132 155.366 598.295 153.771 596.562C151.816 594.439 150.025 592.169 148.332 589.832C138.774 576.638 130.955 559.695 127.41 543.728C124.635 531.226 126.092 518.631 133.094 507.75C141.252 495.072 152.883 486.277 167.751 483.136C178.242 480.92 190.553 482.866 199.612 488.803C212.169 495.069 223.497 507.868 228.017 521.194L229.79 527.875C230.9 532.627 230.882 537.943 230.742 542.814C230.291 558.512 226.714 578.024 218.029 591.414L213.981 596.673C211.917 599.527 208.886 602.868 208.654 606.5C209.255 608.242 209.658 609.365 211.484 610.157C214.04 611.266 217.459 611.238 220.215 611.585C231.61 613.02 239.698 618.09 244.448 628.843C246.869 634.324 247.972 640.462 248.081 646.439C247.76 650.245 247.449 653.907 246.4 657.604C243.267 668.643 236.101 677.358 228.72 685.854C224.228 691.025 220.07 696.137 217.487 702.573C215.806 706.759 215.319 711.066 214.894 715.519C209.971 715.53 187.197 716.466 183.935 714.95L183.415 712.994C184.477 710.149 183.705 704.969 183.7 701.8L183.673 670.859C183.677 669.89 183.337 666.113 183.7 665.374C184.108 664.543 188.018 661.924 188.909 661.194L212.894 641.351C215.001 639.582 219.928 636.312 220.552 633.75L219.25 632.413C217.398 632.572 213.758 636.464 212.276 637.756L192.75 654.501C189.865 656.887 186.901 659.05 183.789 661.131L183.591 556.757L183.579 534.056C183.578 530.696 184.109 526.202 183.25 522.982L182.25 522.541L181.115 523.095C180.191 525.924 180.628 529.588 180.64 532.588L180.661 551.226L160.408 533.501L150.153 524.379C148.585 523.005 146.947 521.211 145 520.459C143.994 521.21 143.958 521.174 143.673 522.387L180.73 555.22L180.725 657.535L180.045 657.203C177.67 655.98 175.31 653.25 173.324 651.448L152.307 632.639C150.664 631.206 147.248 627.467 145.25 627.259L144.073 628.75C145.009 631.629 158.021 641.576 161.163 644.292L180.345 661.43C181.644 664.792 180.898 670.761 180.898 674.474L180.862 702.431C180.865 705.136 180.418 709.051 181.111 711.592C180.951 712.654 180.909 713.997 180.56 714.996C178.052 716.077 174.047 715.535 171.321 715.542L152.561 715.546C152.253 713.505 152.437 710.141 151.696 708.395C150.558 688.255 132.232 676.198 123.107 659.591C120.186 655.752 118.03 648.542 117.618 643.75C116.744 633.597 119.155 625.176 125.697 617.433Z"/>
	<path fill="#105C51" d="M459.827 468.22L467.06 460.638C474.18 453.601 482.128 447.705 490.48 442.207C498.585 436.872 507.06 431.917 516.268 428.741C529.441 424.198 544.155 422.422 558.026 422.516L557.866 435.388C557.827 437.687 557.991 440.194 557.14 442.366C557.669 450.547 556.854 457.034 563.762 463.022C570.647 468.99 579.844 470.332 588.649 469.55C598.542 468.672 609.287 463.19 615.606 455.504C618.182 452.37 619.342 448.655 620.572 444.861C624.063 463.161 624.92 482.572 626.019 501.153L628.495 619.141C612.949 611.708 592.993 601.341 575.192 605.711L574.25 605.955C565.511 608.161 559.416 612.167 552.486 617.84L554.599 633.346C555.487 639.8 555.908 646.637 561.001 651.285C562.288 652.215 563.524 653.082 565.137 653.28C570.375 653.921 576.323 653.229 581.624 653.177L616.694 653.074L625.536 653.322C627.997 654.54 629.446 655.837 630.277 658.54C630.888 660.532 630.333 662.998 629.268 664.75C628.291 666.355 626.939 667.326 625.25 668.053L624.704 668.292C622.333 669.231 619.318 669.061 616.791 669.127L590.229 669.07L507.888 668.969L481.162 668.98C476.459 668.983 471.583 668.722 466.905 669.097C465.24 669.231 463.935 669.685 462.471 670.492L462.185 669.815L462.925 669.347C459.615 668.468 455.308 668.992 451.829 668.985L428.802 668.949L377.806 668.919C365.744 668.918 353.61 668.445 341.627 669.946C337.452 669.214 324.595 670.466 321.975 668.794C316.857 664.204 309.145 662.678 302.457 662.093C300.165 661.893 297.564 661.992 295.445 661.042L294.825 659.169L292.5 658.652C289.691 658.043 287.248 656.5 285.066 654.663C282.111 652.175 280.133 648.989 279.001 645.309C277.32 639.844 276.775 633.815 275.687 628.194L267.01 578.786L255.561 515.057C253.778 504.866 251.239 494.103 250.435 483.797C250.109 479.627 250.549 475.822 253.446 472.571C255.232 470.565 258.37 468.786 261.06 468.448C266.788 467.727 272.977 468.185 278.763 468.175L313.919 468.134L404.404 468.145L459.827 468.22Z"/>
	<path fill="#E89B23" d="M391.173 537.809C397.55 538.763 402.079 541.33 406.003 546.5C411.284 553.458 413.285 563.045 411.994 571.611C411.116 577.435 408.384 583.354 403.626 586.983C400.092 589.68 396.135 590.724 391.739 590.263C388.493 589.419 385.638 588.604 382.906 586.537C376.472 581.668 372.415 573.623 371.543 565.668C370.73 558.249 371.684 550.479 376.624 544.553C380.668 539.702 385.058 538.307 391.173 537.809Z"/>
	<defs>
		<linearGradient id="gradient_1" gradientUnits="userSpaceOnUse" x1="495.69754" y1="728.53448" x2="397.66245" y2="524.05829">
			<stop offset="0" stop-color="#000D2C"/>
			<stop offset="1" stop-color="#011E2C"/>
		</linearGradient>
	</defs>
	<path fill="url(#gradient_1)" d="M295.445 661.042C295.391 659.848 295.093 658.368 295.825 657.334C296.225 656.769 298.171 655.027 298.792 654.697C300.945 653.551 479.304 654.516 498.002 654.513L525.845 654.497C530.361 654.488 535.255 654.828 539.725 654.371C541.835 654.155 543.242 653.633 544.435 651.75C545.67 649.801 545.09 645.228 544.824 642.922L536.946 593.694L529.296 542.053L522.341 496.632C521.472 491.053 521.325 484.736 519.728 479.358C518.115 473.927 514.183 470.942 509.425 468.436L515.908 468.274C520.748 468.553 523.92 469.778 527.226 473.52C531.479 478.336 531.825 485.118 532.779 491.194L535.254 506.382C535.705 509.046 535.867 511.526 536.984 514.006C537.412 514.957 537.361 516.165 537.389 517.195L552.486 617.84L554.599 633.346C555.487 639.8 555.908 646.637 561.001 651.285C562.288 652.215 563.524 653.082 565.137 653.28C570.375 653.921 576.323 653.229 581.624 653.177L616.694 653.074L625.536 653.322C627.997 654.54 629.446 655.837 630.277 658.54C630.888 660.532 630.333 662.998 629.268 664.75C628.291 666.355 626.939 667.326 625.25 668.053L624.704 668.292C622.333 669.231 619.318 669.061 616.791 669.127L590.229 669.07L507.888 668.969L481.162 668.98C476.459 668.983 471.583 668.722 466.905 669.097C465.24 669.231 463.935 669.685 462.471 670.492L462.185 669.815L462.925 669.347C459.615 668.468 455.308 668.992 451.829 668.985L428.802 668.949L377.806 668.919C365.744 668.918 353.61 668.445 341.627 669.946C337.452 669.214 324.595 670.466 321.975 668.794C316.857 664.204 309.145 662.678 302.457 662.093C300.165 661.893 297.564 661.992 295.445 661.042Z"/>
	<path fill="white" d="M557.14 442.366C557.669 450.547 556.854 457.034 563.762 463.022C570.647 468.99 579.844 470.332 588.649 469.55C598.542 468.672 609.287 463.19 615.606 455.504C618.182 452.37 619.342 448.655 620.572 444.861C624.063 463.161 624.92 482.572 626.019 501.153L628.495 619.141C612.949 611.708 592.993 601.341 575.192 605.711L574.25 605.955C565.511 608.161 559.416 612.167 552.486 617.84L537.389 517.195C537.556 511.183 538.421 505.086 539.24 499.127C541.195 484.896 544.249 471.132 549.628 457.774C551.767 452.463 553.941 447.139 557.14 442.366Z"/>
</svg>
